<?xml version="1.0" encoding="UTF-8"?>
<svg version="1.1" xmlns="http://www.w3.org/2000/svg" width="600" height="400">
<path d="M0 0 C198 0 396 0 600 0 C600 132 600 264 600 400 C402 400 204 400 0 400 C0 268 0 136 0 0 Z " fill="#FEFEFE" transform="translate(0,0)"/>
<path d="M0 0 C4.39122893 4.13515295 7.12786866 8.73844847 10 14 C10.34675781 14.61617187 10.69351563 15.23234375 11.05078125 15.8671875 C15.06673175 24.43201084 14.10861053 37.29589053 11 46 C4.04846468 63.45201234 -13.26335648 80.72695784 -28 92 C-29.485 92.495 -29.485 92.495 -31 93 C-31.495 94.485 -31.495 94.485 -32 96 C-33.49609375 97.5078125 -33.49609375 97.5078125 -35.4375 99.125 C-36.15164063 99.73601562 -36.86578125 100.34703125 -37.6015625 100.9765625 C-39.28001408 102.39258516 -40.96266384 103.80363972 -42.6484375 105.2109375 C-49.49586219 110.97221642 -49.49586219 110.97221642 -53 119 C-53.5714781 126.80697196 -53.91797704 133.25701617 -48.94140625 139.640625 C-48.15636719 140.50171875 -47.37132812 141.3628125 -46.5625 142.25 C-45.78003906 143.12140625 -44.99757813 143.9928125 -44.19140625 144.890625 C-42.10121219 147.20519341 -42.10121219 147.20519341 -39 148 C-39 148.66 -39 149.32 -39 150 C-36.36 150.66 -33.72 151.32 -31 152 C-30.05253906 150.72769531 -30.05253906 150.72769531 -29.0859375 149.4296875 C-19.14990186 136.31313893 -7.90692888 125.18306402 5 115 C6.31907859 113.88272075 7.63244508 112.75862821 8.9375 111.625 C15.46875 106 15.46875 106 18 106 C22.18180225 120.26293268 22.12155765 131.57536114 15.45703125 145.140625 C10.12087061 154.66512224 3.23151439 162.69644083 -4.05078125 170.765625 C-6.63123493 173.72357992 -9.00396443 176.8183895 -11.359375 179.95703125 C-13 182 -13 182 -15.0390625 183.9296875 C-17.24608739 186.25981338 -18.33930496 188.38028583 -19.625 191.3125 C-20.02976562 192.21613281 -20.43453125 193.11976563 -20.8515625 194.05078125 C-25.41497533 205.76974957 -25.54172636 218.03615759 -21.40234375 229.89453125 C-18.91932085 235.39314742 -15.60488116 240.18376201 -12 245 C-11.236875 246.051875 -10.47375 247.10375 -9.6875 248.1875 C-5.49751205 252.57237111 -0.75208828 256.24475783 4 260 C5.6671134 261.33277472 7.33392242 262.66593064 9 264 C-9.39802185 261.90376521 -28.45144797 256.53942807 -41 242 C-41 241.34 -41 240.68 -41 240 C-41.58652344 239.77183594 -42.17304688 239.54367187 -42.77734375 239.30859375 C-48.605565 235.87721569 -51.98850711 227.94283909 -53.9375 221.6875 C-55.48260509 215.18675296 -55.26167531 208.63879958 -55 202 C-55.58265625 201.98582031 -56.1653125 201.97164062 -56.765625 201.95703125 C-69.61157043 201.20970424 -77.99228475 195.77909304 -87 187 C-88.3909972 185.86902587 -89.78654366 184.74361389 -91.1875 183.625 C-100.00826078 175.87126674 -106.10841435 163.39094496 -107.8125 151.8125 C-107.874375 150.554375 -107.93625 149.29625 -108 148 C-108.061875 147.30390625 -108.12375 146.6078125 -108.1875 145.890625 C-109.28311417 125.48481099 -98.38902181 105.9069871 -85.5625 90.875 C-76.05572836 80.35642118 -65.65464115 71.56548309 -53.78808594 63.82324219 C-48.53424497 60.39309282 -43.43652144 56.77698826 -38.39135742 53.04711914 C-34.2128548 50 -34.2128548 50 -32 50 C-31.690625 49.1646875 -31.690625 49.1646875 -31.375 48.3125 C-30.03153247 46.05303189 -28.94842298 45.0001344 -26.9375 43.375 C-23.99175287 41.32880603 -23.99175287 41.32880603 -23 39 C-22.34 39 -21.68 39 -21 39 C-20.67 38.01 -20.34 37.02 -20 36 C-19.34 36 -18.68 36 -18 36 C-17.67 35.01 -17.34 34.02 -17 33 C-16.34 33 -15.68 33 -15 33 C-14.73832031 32.443125 -14.47664063 31.88625 -14.20703125 31.3125 C-12.86478049 28.74093867 -11.30391869 26.40849969 -9.6875 24 C-4.89055083 16.51916277 -1.22901777 8.8515429 0 0 Z " fill="#F0790B" transform="translate(343,68)"/>
<path d="M0 0 C4.18180225 14.26293268 4.12155765 25.57536114 -2.54296875 39.140625 C-7.87912939 48.66512224 -14.76848561 56.69644083 -22.05078125 64.765625 C-24.63123493 67.72357992 -27.00396443 70.8183895 -29.359375 73.95703125 C-31 76 -31 76 -33.0390625 77.9296875 C-35.24608739 80.25981338 -36.33930496 82.38028583 -37.625 85.3125 C-38.02976562 86.21613281 -38.43453125 87.11976563 -38.8515625 88.05078125 C-43.41497533 99.76974957 -43.54172636 112.03615759 -39.40234375 123.89453125 C-36.91932085 129.39314742 -33.60488116 134.18376201 -30 139 C-29.236875 140.051875 -28.47375 141.10375 -27.6875 142.1875 C-23.49751205 146.57237111 -18.75208828 150.24475783 -14 154 C-12.3328866 155.33277472 -10.66607758 156.66593064 -9 158 C-27.39802185 155.90376521 -46.45144797 150.53942807 -59 136 C-59 135.34 -59 134.68 -59 134 C-59.58652344 133.77183594 -60.17304688 133.54367187 -60.77734375 133.30859375 C-66.51295221 129.93174167 -69.93824664 122.08758414 -71.9375 115.9375 C-73.80104466 108.14242905 -73.23629526 99.95527391 -73 92 C-72.34 92 -71.68 92 -71 92 C-70.94392578 91.02160156 -70.94392578 91.02160156 -70.88671875 90.0234375 C-70.48029754 84.62042606 -69.71469042 80.77785513 -67 76 C-66.56107422 74.61361328 -66.56107422 74.61361328 -66.11328125 73.19921875 C-64.94721751 69.84831979 -63.45244847 67.0989373 -61.625 64.0625 C-59.70603626 60.86553787 -57.82661568 57.69157501 -56.125 54.375 C-53.58919699 50.34754816 -50.57426947 47.07599826 -47.34375 43.59375 C-45.18101005 41.20031779 -43.21091683 38.74666264 -41.25 36.1875 C-33.06251751 25.83513645 -23.31241949 17.16743624 -13 9 C-11.68110674 7.88250198 -10.36773512 6.75842073 -9.0625 5.625 C-2.53125 0 -2.53125 0 0 0 Z " fill="#8B2B75" transform="translate(361,174)"/>
<path d="M0 0 C1.04549908 3.13649725 1.00170317 3.9948905 0 7 C-0.33 7.33 -0.66 7.66 -1 8 C-0.34 8.33 0.32 8.66 1 9 C1 9.66 1 10.32 1 11 C0.195625 11.268125 -0.60875 11.53625 -1.4375 11.8125 C-2.283125 12.204375 -3.12875 12.59625 -4 13 C-5.04449911 16.13349732 -4.93423645 16.98968256 -4 20 C-6.31 20.33 -8.62 20.66 -11 21 C-11.2165625 22.11375 -11.2165625 22.11375 -11.4375 23.25 C-12 26 -12 26 -12.625 28.125 C-13.2041405 30.21447673 -13.2041405 30.21447673 -12 33 C-14.21934164 36.32901247 -15.34683329 36.75023244 -19 38 C-19.16987681 39.87471188 -19.33574776 41.74978695 -19.5 43.625 C-19.63921875 45.19121094 -19.63921875 45.19121094 -19.78125 46.7890625 C-19.92709284 48.92982704 -19.99869463 51.07693116 -19.99609375 53.22265625 C-20 56 -20 56 -20.5625 58.8125 C-21.35389719 64.57839379 -20.27536132 70.35197129 -19 76 C-16.69 76 -14.38 76 -12 76 C-12 78.64 -12 81.28 -12 84 C-10.35 84 -8.7 84 -7 84 C-7.061875 82.72125 -7.12375 81.4425 -7.1875 80.125 C-7.29296875 77.9453125 -7.29296875 77.9453125 -7 76 C-5.515 75.01 -5.515 75.01 -4 74 C-3.71108913 71.9924382 -3.71108913 71.9924382 -3.9375 69.75 C-4.08620705 65.74784057 -3.53792778 62.74869895 -2 59 C-0.68 59.33 0.64 59.66 2 60 C2.99 56.37 3.98 52.74 5 49 C4.34 48.67 3.68 48.34 3 48 C5.35277269 45.27573689 7.62496331 44.1858237 11 43 C11.020625 41.906875 11.04125 40.81375 11.0625 39.6875 C11.371875 38.470625 11.68125 37.25375 12 36 C15.5 34.3125 15.5 34.3125 19 33 C19.2475 32.01 19.2475 32.01 19.5 31 C19.665 30.34 19.83 29.68 20 29 C22.33333333 28 24.66666667 27 27 26 C28.04289755 23.93109581 28.04289755 23.93109581 28 22 C27.34 22 26.68 22 26 22 C26 21.34 26 20.68 26 20 C22.9168649 21.19899698 19.93720508 22.47700477 17 24 C17 23.34 17 22.68 17 22 C15.68 22.33 14.36 22.66 13 23 C12.505 21.515 12.505 21.515 12 20 C13.7325 19.8453125 13.7325 19.8453125 15.5 19.6875 C18.67721751 19.30939419 21.35038039 18.57853283 24.3125 17.375 C28 16 28 16 31 17 C30.505 18.485 30.505 18.485 30 20 C30.66 20 31.32 20 32 20 C32.6875 21.5625 32.6875 21.5625 33 24 C32.525625 24.969375 32.05125 25.93875 31.5625 26.9375 C28.79900909 32.78139591 28.97158337 40.43843084 30.7421875 46.5703125 C32.28502655 49.55057923 34.17788365 51.77147173 36.4375 54.25 C37.21996094 55.12140625 38.00242187 55.9928125 38.80859375 56.890625 C40.89878781 59.20519341 40.89878781 59.20519341 44 60 C44 60.66 44 61.32 44 62 C45.98 62.66 47.96 63.32 50 64 C49.60217934 66.68528947 48.99752331 68.00300741 47.25 70.125 C44.66788308 73.42437161 43.03546869 76.82385652 41.2265625 80.5859375 C40 83 40 83 37.875 86.0625 C33.34120078 93.16545212 31.93307087 101.89755403 30 110 C29.34 110 28.68 110 28 110 C28 111.32 28 112.64 28 114 C14.44452088 113.67011002 5.50445812 108.26322822 -4 99 C-5.3909972 97.86902587 -6.78654366 96.74361389 -8.1875 95.625 C-17.00826078 87.87126674 -23.10841435 75.39094496 -24.8125 63.8125 C-24.874375 62.554375 -24.93625 61.29625 -25 60 C-25.061875 59.30390625 -25.12375 58.6078125 -25.1875 57.890625 C-26.36135068 36.02765601 -13.99139574 15.69766352 0 0 Z " fill="#EE6C0C" transform="translate(260,156)"/>
<path d="M0 0 C0.99 0.33 1.98 0.66 3 1 C2.690625 1.66 2.38125 2.32 2.0625 3 C0.41116352 7.66259712 -0.59957704 12.20126887 1 17 C0.34 17.99 -0.32 18.98 -1 20 C-0.67 20.66 -0.34 21.32 0 22 C-1.32 22.33 -2.64 22.66 -4 23 C-4.33 21.02 -4.66 19.04 -5 17 C-5.66 19.64 -6.32 22.28 -7 25 C-7.66 24.67 -8.32 24.34 -9 24 C-9.66 26.31 -10.32 28.62 -11 31 C-10.01 31 -9.02 31 -8 31 C-7.875 34.375 -7.875 34.375 -8 38 C-8.66 38.66 -9.32 39.32 -10 40 C-10.6425235 42.06874034 -10.6425235 42.06874034 -11 44 C-10.01 44.33 -9.02 44.66 -8 45 C-8 45.99 -8 46.98 -8 48 C-3.77036532 46.48941618 -2.08753827 43.87685679 0 40 C0.33397787 36.87413125 0.33397787 36.87413125 0 34 C0 33.01 0 32.02 0 31 C0.66 31 1.32 31 2 31 C2 30.34 2 29.68 2 29 C2.66 29.33 3.32 29.66 4 30 C4 31.65 4 33.3 4 35 C4.66 35 5.32 35 6 35 C6.268125 34.4225 6.53625 33.845 6.8125 33.25 C8.02929189 30.94449957 9.30333879 28.97943808 11 27 C11.66 27 12.32 27 13 27 C11.58154369 30.10942394 9.85321834 32.55118211 7.6875 35.1875 C4.23415901 39.53668677 1.53067164 44.06693961 -1 49 C-1.66 49 -2.32 49 -3 49 C-3.08152344 51.54232342 -3.14073716 54.08199202 -3.1875 56.625 C-3.21263672 57.33785156 -3.23777344 58.05070312 -3.26367188 58.78515625 C-3.33106045 63.68205955 -2.39640831 66.62737553 0 71 C-0.495 71.99 -0.495 71.99 -1 73 C0.9254644 74.1490712 0.9254644 74.1490712 3 74 C4.62514468 72.54166642 4.62514468 72.54166642 6 71 C8.03839677 72.76043357 8.97870959 73.94322557 9.9375 76.5 C11.15477378 79.36417361 12.40797337 80.35838313 15 82 C15.495 80.515 15.495 80.515 16 79 C18.5625 77.8125 18.5625 77.8125 21 77 C21 77.66 21 78.32 21 79 C22.98 78.505 22.98 78.505 25 78 C25.37769531 78.47308594 25.75539063 78.94617188 26.14453125 79.43359375 C31.14695832 85.4435354 36.86415766 90.18544524 43 95 C44.66756265 96.33221258 46.33450717 97.66520069 48 99 C29.60197815 96.90376521 10.54855203 91.53942807 -2 77 C-2 76.34 -2 75.68 -2 75 C-2.58652344 74.77183594 -3.17304688 74.54367187 -3.77734375 74.30859375 C-9.51295221 70.93174167 -12.93824664 63.08758414 -14.9375 56.9375 C-16.80104466 49.14242905 -16.23629526 40.95527391 -16 33 C-15.34 33 -14.68 33 -14 33 C-13.96261719 32.34773438 -13.92523438 31.69546875 -13.88671875 31.0234375 C-13.48029754 25.62042606 -12.71469042 21.77785513 -10 17 C-9.30028027 15.01132287 -8.62335603 13.01391949 -8 11 C-7.01 11 -6.02 11 -5 11 C-5 10.01 -5 9.02 -5 8 C-4.01 7.67 -3.02 7.34 -2 7 C-1.855625 6.21625 -1.71125 5.4325 -1.5625 4.625 C-1 2 -1 2 0 0 Z M-3 68 C-2 70 -2 70 -2 70 Z " fill="#3A3364" transform="translate(304,233)"/>
<path d="M0 0 C4.39122893 4.13515295 7.12786866 8.73844847 10 14 C10.34675781 14.61617187 10.69351563 15.23234375 11.05078125 15.8671875 C15.06673175 24.43201084 14.10861053 37.29589053 11 46 C4.04846468 63.45201234 -13.26335648 80.72695784 -28 92 C-28.99 92.33 -29.98 92.66 -31 93 C-30.835 92.38125 -30.67 91.7625 -30.5 91.125 C-29.92365356 89.03936614 -29.92365356 89.03936614 -30 87 C-30.70125 87.61875 -31.4025 88.2375 -32.125 88.875 C-35.06296949 91.04654267 -37.55346618 91.9033756 -41 93 C-41.33 93.66 -41.66 94.32 -42 95 C-42.66 95 -43.32 95 -44 95 C-44 95.66 -44 96.32 -44 97 C-45.64453125 98.32421875 -45.64453125 98.32421875 -47.8125 99.6875 C-48.52019531 100.14511719 -49.22789062 100.60273438 -49.95703125 101.07421875 C-52 102 -52 102 -55 101 C-55.375 98.8125 -55.375 98.8125 -55 96 C-53.16038352 94.00977164 -51.20813852 92.61010101 -49 91 C-47.35 91.66 -45.7 92.32 -44 93 C-43.731875 92.35933594 -43.46375 91.71867187 -43.1875 91.05859375 C-40.52422159 85.18010752 -37.83584251 81.65117673 -32.79296875 77.66796875 C-30.08131905 75.14536653 -29.30074051 72.42300134 -28 69 C-27.01 68.67 -26.02 68.34 -25 68 C-24.67 66.35 -24.34 64.7 -24 63 C-22.93453047 66.1964086 -22.92572162 68.65747276 -23 72 C-23.99 72.33 -24.98 72.66 -26 73 C-26 73.99 -26 74.98 -26 76 C-25.34 75.67 -24.68 75.34 -24 75 C-22.88625 75.165 -21.7725 75.33 -20.625 75.5 C-16.63597332 76.17418604 -16.63597332 76.17418604 -13 75 C-12.31867549 73.33927151 -11.65257873 71.672233 -11 70 C-8.875 68.6875 -8.875 68.6875 -7 68 C-7 65.36 -7 62.72 -7 60 C-4.23735711 59.40267181 -1.83967231 59 1 59 C1.495 58.01 1.495 58.01 2 57 C1.01 57 0.02 57 -1 57 C-0.34 55.35 0.32 53.7 1 52 C2.32 52 3.64 52 5 52 C4.505 49.03 4.505 49.03 4 46 C4.99 46 5.98 46 7 46 C9.05362055 40.91059256 10.43179252 36.45479185 11 31 C10.34 31 9.68 31 9 31 C9 26.71 9 22.42 9 18 C8.34 18 7.68 18 7 18 C7 18.66 7 19.32 7 20 C6.34 20 5.68 20 5 20 C4.505 18.02 4.505 18.02 4 16 C4.99 15.67 5.98 15.34 7 15 C6.01 13.515 6.01 13.515 5 12 C3.68 12.33 2.36 12.66 1 13 C1 14.98 1 16.96 1 19 C0.38125 19.103125 -0.2375 19.20625 -0.875 19.3125 C-3.36526484 19.87525373 -3.36526484 19.87525373 -5 23 C-5.16713569 25.62531524 -5.16713569 25.62531524 -5 28 C-6.32 28 -7.64 28 -9 28 C-9.20970559 32.14093698 -9.20970559 32.14093698 -8 36 C-9.65 36.66 -11.3 37.32 -13 38 C-13 37.34 -13 36.68 -13 36 C-15.97 36.495 -15.97 36.495 -19 37 C-19.185625 37.9590625 -19.185625 37.9590625 -19.375 38.9375 C-19.58125 39.618125 -19.7875 40.29875 -20 41 C-20.99 41.495 -20.99 41.495 -22 42 C-22.0825 43.258125 -22.165 44.51625 -22.25 45.8125 C-22.6096497 49.59221474 -22.80633521 49.8351789 -25.9375 52.5 C-29 54 -29 54 -31 54 C-31.12375 54.61875 -31.2475 55.2375 -31.375 55.875 C-32 58 -32 58 -34 60 C-34.66 59.67 -35.32 59.34 -36 59 C-38.38545624 59.16914103 -38.38545624 59.16914103 -41 59.6875 C-41.886875 59.83574219 -42.77375 59.98398438 -43.6875 60.13671875 C-46.6151359 61.22963688 -46.70794954 62.2717447 -48 65 C-49.9453125 65.828125 -49.9453125 65.828125 -52.125 66.25 C-53.40375 66.4975 -54.6825 66.745 -56 67 C-56 67.66 -56 68.32 -56 69 C-59 71 -59 71 -61.1875 70.625 C-61.785625 70.41875 -62.38375 70.2125 -63 70 C-62.07960938 69.39414063 -61.15921875 68.78828125 -60.2109375 68.1640625 C-52.82181248 63.27860935 -45.51869795 58.31570309 -38.39404297 53.04931641 C-34.21335041 50 -34.21335041 50 -32 50 C-31.79375 49.443125 -31.5875 48.88625 -31.375 48.3125 C-30.03153247 46.05303189 -28.94842298 45.0001344 -26.9375 43.375 C-23.99175287 41.32880603 -23.99175287 41.32880603 -23 39 C-22.34 39 -21.68 39 -21 39 C-20.67 38.01 -20.34 37.02 -20 36 C-19.34 36 -18.68 36 -18 36 C-17.67 35.01 -17.34 34.02 -17 33 C-16.34 33 -15.68 33 -15 33 C-14.60748047 32.1646875 -14.60748047 32.1646875 -14.20703125 31.3125 C-12.86478049 28.74093867 -11.30391869 26.40849969 -9.6875 24 C-4.89055083 16.51916277 -1.22901777 8.8515429 0 0 Z M-28 77 C-27 80 -27 80 -27 80 Z " fill="#FABA05" transform="translate(343,68)"/>
<path d="M0 0 C1.04549908 3.13649725 1.00170317 3.9948905 0 7 C-0.33 7.33 -0.66 7.66 -1 8 C-0.34 8.33 0.32 8.66 1 9 C1 9.66 1 10.32 1 11 C0.195625 11.268125 -0.60875 11.53625 -1.4375 11.8125 C-2.283125 12.204375 -3.12875 12.59625 -4 13 C-5.04449911 16.13349732 -4.93423645 16.98968256 -4 20 C-6.31 20.33 -8.62 20.66 -11 21 C-11.2165625 22.11375 -11.2165625 22.11375 -11.4375 23.25 C-12 26 -12 26 -12.625 28.125 C-13.2041405 30.21447673 -13.2041405 30.21447673 -12 33 C-14.21934164 36.32901247 -15.34683329 36.75023244 -19 38 C-19.16987681 39.87471188 -19.33574776 41.74978695 -19.5 43.625 C-19.63921875 45.19121094 -19.63921875 45.19121094 -19.78125 46.7890625 C-19.92709284 48.92982704 -19.99869463 51.07693116 -19.99609375 53.22265625 C-20 56 -20 56 -20.5625 58.8125 C-21.35389719 64.57839379 -20.27536132 70.35197129 -19 76 C-16.69 76 -14.38 76 -12 76 C-12 78.64 -12 81.28 -12 84 C-10.35 84 -8.7 84 -7 84 C-7.061875 82.72125 -7.12375 81.4425 -7.1875 80.125 C-7.29296875 77.9453125 -7.29296875 77.9453125 -7 76 C-5.515 75.01 -5.515 75.01 -4 74 C-3.71108913 71.9924382 -3.71108913 71.9924382 -3.9375 69.75 C-4.08620705 65.74784057 -3.53792778 62.74869895 -2 59 C-0.515 59.495 -0.515 59.495 1 60 C0.125 65.75 0.125 65.75 -1 68 C-1.22188794 69.88340377 -1.39189787 71.77305191 -1.53515625 73.6640625 C-1.62216797 74.78554687 -1.70917969 75.90703125 -1.79882812 77.0625 C-1.88583984 78.238125 -1.97285156 79.41375 -2.0625 80.625 C-2.15337891 81.80835938 -2.24425781 82.99171875 -2.33789062 84.2109375 C-2.56232233 87.14036185 -2.78285965 90.07002763 -3 93 C-2.34 93.33 -1.68 93.66 -1 94 C-1.33 94.66 -1.66 95.32 -2 96 C-0.515 95.505 -0.515 95.505 1 95 C4 97 4 97 6 100 C6.99 100 7.98 100 9 100 C10.66666667 100 12.33333333 100 14 100 C13.34 102.64 12.68 105.28 12 108 C14.12368444 108.22134176 16.24904024 108.42670007 18.375 108.625 C20.15003906 108.79902344 20.15003906 108.79902344 21.9609375 108.9765625 C23.46527344 108.98816406 23.46527344 108.98816406 25 109 C25.66 108.34 26.32 107.68 27 107 C26.01 106.67 25.02 106.34 24 106 C25 104 25 104 28 103 C28 101.35 28 99.7 28 98 C28.99 98.33 29.98 98.66 31 99 C31 97.35 31 95.7 31 94 C31.66 94 32.32 94 33 94 C33 93.34 33 92.68 33 92 C33.66 92 34.32 92 35 92 C34.731875 92.7425 34.46375 93.485 34.1875 94.25 C32.54412127 99.43961704 31.28358224 104.71164116 30 110 C29.34 110 28.68 110 28 110 C28 111.32 28 112.64 28 114 C14.44452088 113.67011002 5.50445812 108.26322822 -4 99 C-5.3909972 97.86902587 -6.78654366 96.74361389 -8.1875 95.625 C-17.00826078 87.87126674 -23.10841435 75.39094496 -24.8125 63.8125 C-24.874375 62.554375 -24.93625 61.29625 -25 60 C-25.061875 59.30390625 -25.12375 58.6078125 -25.1875 57.890625 C-26.36135068 36.02765601 -13.99139574 15.69766352 0 0 Z " fill="#E20518" transform="translate(260,156)"/>
<path d="M0 0 C-0.19335938 0.56847656 -0.38671875 1.13695312 -0.5859375 1.72265625 C-0.84632813 2.49480469 -1.10671875 3.26695312 -1.375 4.0625 C-1.75785156 5.19365234 -1.75785156 5.19365234 -2.1484375 6.34765625 C-2.42945313 7.22292969 -2.71046875 8.09820312 -3 9 C-3.35578125 10.09957031 -3.7115625 11.19914062 -4.078125 12.33203125 C-7.44028774 25.70944996 -4.68837247 39.08961002 2.25 50.8125 C3.15245664 52.21756245 4.06363625 53.61730286 5 55 C2.92446352 55.5534764 1.15634036 56 -1 56 C-4.11785113 56.64644661 -4.11785113 56.64644661 -5 59 C-8.80414011 57.7319533 -9.09067839 56.42086788 -11 53 C-12.46771271 50.73545927 -12.46771271 50.73545927 -14 49 C-14.66 49 -15.32 49 -16 49 C-16.33 49.99 -16.66 50.98 -17 52 C-18.485 52.495 -18.485 52.495 -20 53 C-20.45572917 51.01432292 -20.91145833 49.02864583 -21.3671875 47.04296875 C-21.98007723 44.72257026 -21.98007723 44.72257026 -24 42 C-24.23046875 38.71484375 -24.23046875 38.71484375 -24.1875 34.9375 C-24.18105469 33.68839844 -24.17460937 32.43929687 -24.16796875 31.15234375 C-24 28 -24 28 -23 26 C-22.34 26 -21.68 26 -21 26 C-20.72027344 25.25878906 -20.44054687 24.51757812 -20.15234375 23.75390625 C-17.20649254 16.71382115 -12.33039236 11.03695971 -7.25 5.4375 C-6.7660376 4.9005249 -6.2820752 4.3635498 -5.78344727 3.81030273 C-2.249424 0 -2.249424 0 0 0 Z " fill="#992674" transform="translate(324,256)"/>
<path d="M0 0 C0.33 0 0.66 0 1 0 C1.03738281 0.65226562 1.07476562 1.30453125 1.11328125 1.9765625 C1.52042675 7.38920264 2.34755869 11.17737944 5 16 C4.67 16.66 4.34 17.32 4 18 C5.9254644 19.1490712 5.9254644 19.1490712 8 19 C9.62514468 17.54166642 9.62514468 17.54166642 11 16 C13.03839677 17.76043357 13.97870959 18.94322557 14.9375 21.5 C16.15477378 24.36417361 17.40797337 25.35838313 20 27 C20.33 26.01 20.66 25.02 21 24 C23.5625 22.8125 23.5625 22.8125 26 22 C26 22.66 26 23.32 26 24 C27.32 23.67 28.64 23.34 30 23 C30.37769531 23.47308594 30.75539063 23.94617188 31.14453125 24.43359375 C36.14695832 30.4435354 41.86415766 35.18544524 48 40 C49.66756265 41.33221258 51.33450717 42.66520069 53 44 C34.60197815 41.90376521 15.54855203 36.53942807 3 22 C3 21.34 3 20.68 3 20 C2.38125 19.7525 1.7625 19.505 1.125 19.25 C-1.35068687 17.79371361 -1.95125002 16.62187494 -3 14 C-2.34 14 -1.68 14 -1 14 C-1.01160156 13.32453125 -1.02320313 12.6490625 -1.03515625 11.953125 C-1.04417969 11.06109375 -1.05320312 10.1690625 -1.0625 9.25 C-1.07410156 8.36828125 -1.08570313 7.4865625 -1.09765625 6.578125 C-1.00826198 4.2181162 -0.66912821 2.25501476 0 0 Z M2 13 C3 15 3 15 3 15 Z " fill="#7A3473" transform="translate(299,288)"/>
<path d="M0 0 C0 3 0 3 -1 6 C-1.12040604 8.12250645 -1.17533819 10.24911587 -1.1875 12.375 C-1.20876953 14.05722656 -1.20876953 14.05722656 -1.23046875 15.7734375 C-0.80345443 21.75163804 1.4256731 24.78313393 5.5 29.0625 C8.25400197 31.96403779 10.24975635 34.42725493 12 38 C14.05000871 38.80528889 14.05000871 38.80528889 16 39 C15.67 39.99 15.34 40.98 15 42 C12.9375 42.6875 12.9375 42.6875 11 43 C10.9175 43.5775 10.835 44.155 10.75 44.75 C9.73151664 47.80545009 8.59653964 49.08676027 6 51 C3.66666667 51 1.33333333 51 -1 51 C-2.98239527 52.86124923 -2.98239527 52.86124923 -4 55 C-4 54.34 -4 53.68 -4 53 C-4.66 53 -5.32 53 -6 53 C-6.66 49.7 -7.32 46.4 -8 43 C-8.66 43 -9.32 43 -10 43 C-10 37.06 -10 31.12 -10 25 C-9.01 25.33 -8.02 25.66 -7 26 C-7.01160156 26.97582031 -7.02320313 27.95164063 -7.03515625 28.95703125 C-7.04417969 30.22933594 -7.05320312 31.50164062 -7.0625 32.8125 C-7.07410156 34.07707031 -7.08570313 35.34164062 -7.09765625 36.64453125 C-7.16159116 39.99605237 -7.16159116 39.99605237 -6 43 C-5.34 43.33 -4.68 43.66 -4 44 C-4 45.65 -4 47.3 -4 49 C-3.2575 48.195625 -2.515 47.39125 -1.75 46.5625 C0.75304829 44.23011409 1.7180955 43.36465606 5 43 C6.2380014 39.42355152 5.74926071 36.66305234 5 33 C4.01 33 3.02 33 2 33 C1.54625 32.030625 1.0925 31.06125 0.625 30.0625 C-0.65786221 26.92920418 -0.65786221 26.92920418 -3 26 C-3.47574438 23.45975996 -3.84007547 20.99948536 -4.125 18.4375 C-4.21136719 17.72658203 -4.29773438 17.01566406 -4.38671875 16.28320312 C-4.59934783 14.52310688 -4.80072697 12.76165836 -5 11 C-8.35722734 14.22727015 -10.51877623 16.5563287 -12 21 C-12.33 21.33 -12.66 21.66 -13 22 C-12.34 22.66 -11.68 23.32 -11 24 C-14 26 -14 26 -17 26 C-17 25.34 -17 24.68 -17 24 C-17.66 23.67 -18.32 23.34 -19 23 C-16.11124094 16.32905125 -12.49042659 11.98286309 -7.25 7 C-6.55261719 6.32066406 -5.85523438 5.64132813 -5.13671875 4.94140625 C-3.43332085 3.28467678 -1.72128631 1.63810147 0 0 Z " fill="#F29006" transform="translate(291,181)"/>
<path d="M0 0 C1.04549908 3.13649725 1.00170317 3.9948905 0 7 C-0.33 7.33 -0.66 7.66 -1 8 C-0.34 8.33 0.32 8.66 1 9 C1 9.66 1 10.32 1 11 C0.195625 11.268125 -0.60875 11.53625 -1.4375 11.8125 C-2.283125 12.204375 -3.12875 12.59625 -4 13 C-5.04449911 16.13349732 -4.93423645 16.98968256 -4 20 C-6.31 20.33 -8.62 20.66 -11 21 C-11.2165625 22.11375 -11.2165625 22.11375 -11.4375 23.25 C-12 26 -12 26 -12.625 28.125 C-13.2041405 30.21447673 -13.2041405 30.21447673 -12 33 C-14.21934164 36.32901247 -15.34683329 36.75023244 -19 38 C-19.16987681 39.87471188 -19.33574776 41.74978695 -19.5 43.625 C-19.63921875 45.19121094 -19.63921875 45.19121094 -19.78125 46.7890625 C-19.92709284 48.92982704 -19.99869463 51.07693116 -19.99609375 53.22265625 C-20 56 -20 56 -20.5625 58.8125 C-21.93716383 68.82790788 -18.49398322 76.85374902 -13 85 C-13 85.99 -13 86.98 -13 88 C-11.68 88 -10.36 88 -9 88 C-8.67 90.31 -8.34 92.62 -8 95 C-17.81281252 86.05302388 -24.3436075 73.34664742 -25 60 C-25.061875 59.30390625 -25.12375 58.6078125 -25.1875 57.890625 C-26.36135068 36.02765601 -13.99139574 15.69766352 0 0 Z " fill="#C81C2D" transform="translate(260,156)"/>
<path d="M0 0 C1.06546953 3.1964086 1.07427838 5.65747276 1 9 C0.01 9.33 -0.98 9.66 -2 10 C-2 10.99 -2 11.98 -2 13 C-1.34 12.67 -0.68 12.34 0 12 C2.35981813 12.93578995 4.69631264 13.93347808 7 15 C6.62474306 20.07969762 4.29185607 22.039008 0.5625 25.3125 C0.05912109 25.76689453 -0.44425781 26.22128906 -0.96289062 26.68945312 C-4.71152491 30 -4.71152491 30 -7 30 C-6.7525 29.071875 -6.7525 29.071875 -6.5 28.125 C-5.92365356 26.03936614 -5.92365356 26.03936614 -6 24 C-6.70125 24.61875 -7.4025 25.2375 -8.125 25.875 C-11.06296949 28.04654267 -13.55346618 28.9033756 -17 30 C-17.33 30.66 -17.66 31.32 -18 32 C-18.66 32 -19.32 32 -20 32 C-20 32.66 -20 33.32 -20 34 C-21.64453125 35.32421875 -21.64453125 35.32421875 -23.8125 36.6875 C-24.87404297 37.37392578 -24.87404297 37.37392578 -25.95703125 38.07421875 C-28 39 -28 39 -31 38 C-31.375 35.8125 -31.375 35.8125 -31 33 C-29.16038352 31.00977164 -27.20813852 29.61010101 -25 28 C-22.525 28.99 -22.525 28.99 -20 30 C-19.731875 29.35933594 -19.46375 28.71867187 -19.1875 28.05859375 C-16.52422159 22.18010752 -13.83584251 18.65117673 -8.79296875 14.66796875 C-6.08131905 12.14536653 -5.30074051 9.42300134 -4 6 C-3.01 5.67 -2.02 5.34 -1 5 C-0.67 3.35 -0.34 1.7 0 0 Z M-4 14 C-3 17 -3 17 -3 17 Z " fill="#F39D09" transform="translate(319,131)"/>
<path d="M0 0 C-0.19335938 0.56847656 -0.38671875 1.13695312 -0.5859375 1.72265625 C-0.84632813 2.49480469 -1.10671875 3.26695312 -1.375 4.0625 C-1.75785156 5.19365234 -1.75785156 5.19365234 -2.1484375 6.34765625 C-2.42945313 7.22292969 -2.71046875 8.09820312 -3 9 C-3.35707031 10.09699219 -3.71414063 11.19398438 -4.08203125 12.32421875 C-6.43454821 21.74429731 -5.70265444 31.73851846 -2.55859375 40.86328125 C-2 43 -2 43 -3 46 C-3.66 46 -4.32 46 -5 46 C-5 46.66 -5 47.32 -5 48 C-6.65 48 -8.3 48 -10 48 C-14.16997272 40.86358327 -13.12961557 31.03616562 -13 23 C-13 22.34 -13 21.68 -13 21 C-16.0210714 23.0140476 -17.60667426 24.63279613 -19 28 C-19.33 27.34 -19.66 26.68 -20 26 C-19.03018744 24.31558871 -18.02062519 22.65411668 -17 21 C-16.49801045 19.6465696 -15.99823842 18.2923158 -15.5 16.9375 C-13.54611866 12.38357184 -10.69040374 9.04861636 -7.375 5.4375 C-6.88322266 4.9005249 -6.39144531 4.3635498 -5.88476562 3.81030273 C-2.27207085 0 -2.27207085 0 0 0 Z " fill="#B61B77" transform="translate(324,256)"/>
<path d="M0 0 C-0.33 0.99 -0.66 1.98 -1 3 C-0.34 3 0.32 3 1 3 C1.69067383 4.78759766 1.69067383 4.78759766 2 7 C0.8034668 8.70068359 0.8034668 8.70068359 -1.05078125 10.3984375 C-1.72520264 11.03563721 -2.39962402 11.67283691 -3.09448242 12.3293457 C-4.19240112 13.34194458 -4.19240112 13.34194458 -5.3125 14.375 C-18.45987822 27.01143608 -29.39538479 40.59109982 -30.09106445 59.47143555 C-30.1327494 61.96107512 -30.13671732 64.44757003 -30.125 66.9375 C-30.12886719 67.78634766 -30.13273437 68.63519531 -30.13671875 69.50976562 C-30.13542969 70.31994141 -30.13414062 71.13011719 -30.1328125 71.96484375 C-30.13168457 72.6930835 -30.13055664 73.42132324 -30.12939453 74.17163086 C-30.11031064 76.09850934 -30.11031064 76.09850934 -29 78 C-30.98 78.495 -30.98 78.495 -33 79 C-34.81743519 73.54769444 -34.11526679 67.69660591 -34 62 C-34.00644531 61.10925781 -34.01289063 60.21851563 -34.01953125 59.30078125 C-33.70322913 49.70628347 -29.51555242 40.80463049 -26 32 C-26.66 31.67 -27.32 31.34 -28 31 C-25.64722731 28.27573689 -23.37503669 27.1858237 -20 26 C-19.979375 24.906875 -19.95875 23.81375 -19.9375 22.6875 C-19.628125 21.470625 -19.31875 20.25375 -19 19 C-15.5 17.3125 -15.5 17.3125 -12 16 C-11.835 15.34 -11.67 14.68 -11.5 14 C-11.335 13.34 -11.17 12.68 -11 12 C-8.66666667 11 -6.33333333 10 -4 9 C-2.95710245 6.93109581 -2.95710245 6.93109581 -3 5 C-3.66 5 -4.32 5 -5 5 C-5 4.34 -5 3.68 -5 3 C-8.0831351 4.19899698 -11.06279492 5.47700477 -14 7 C-14 6.34 -14 5.68 -14 5 C-15.32 5.33 -16.64 5.66 -18 6 C-18.33 5.01 -18.66 4.02 -19 3 C-17.845 2.896875 -16.69 2.79375 -15.5 2.6875 C-12.32278249 2.30939419 -9.64961961 1.57853283 -6.6875 0.375 C-3 -1 -3 -1 0 0 Z " fill="#E76909" transform="translate(291,173)"/>
<path d="M0 0 C0.99 0 1.98 0 3 0 C5.41965479 3.07497796 7.16977431 6.54957452 9 10 C9.34804688 10.62132813 9.69609375 11.24265625 10.0546875 11.8828125 C14.07830055 20.42820022 13.10223782 33.31373411 10 42 C4.68011506 55.35571114 -6.65245219 68.35132843 -18 77 C-18.625 75.125 -18.625 75.125 -19 73 C-18.01 72.01 -18.01 72.01 -17 71 C-16.01 71 -15.02 71 -14 71 C-13.7525 70.21625 -13.505 69.4325 -13.25 68.625 C-11.84610901 65.67682892 -10.99324263 65.0975223 -8 64 C-8 61.36 -8 58.72 -8 56 C-5.23735711 55.40267181 -2.83967231 55 0 55 C0.33 54.34 0.66 53.68 1 53 C0.01 53 -0.98 53 -2 53 C-1.34 51.35 -0.68 49.7 0 48 C1.32 48 2.64 48 4 48 C3.67 46.02 3.34 44.04 3 42 C3.99 42 4.98 42 6 42 C8.05362055 36.91059256 9.43179252 32.45479185 10 27 C9.34 27 8.68 27 8 27 C8 22.71 8 18.42 8 14 C7.34 14 6.68 14 6 14 C6 14.66 6 15.32 6 16 C5.34 16 4.68 16 4 16 C3.67 14.68 3.34 13.36 3 12 C3.99 11.67 4.98 11.34 6 11 C5.34 10.01 4.68 9.02 4 8 C2.68 8.33 1.36 8.66 0 9 C0 10.98 0 12.96 0 15 C-1.65 15.33 -3.3 15.66 -5 16 C-3.50723624 10.60308488 -1.80304155 5.30094216 0 0 Z " fill="#F0D22E" transform="translate(344,72)"/>
<path d="M0 0 C0 3 0 3 -1 6 C-1.12040604 8.12250645 -1.17533819 10.24911587 -1.1875 12.375 C-1.20876953 14.05722656 -1.20876953 14.05722656 -1.23046875 15.7734375 C-0.81968602 21.52439578 1.26111497 24.63701134 5.125 28.8125 C5.84945313 29.60269531 6.57390625 30.39289063 7.3203125 31.20703125 C7.87460937 31.79871094 8.42890625 32.39039063 9 33 C5.98968256 33.93423645 5.13349732 34.04449911 2 33 C0.96708324 31.01679982 -0.0337499 29.01652194 -1 27 C-1.66 26.67 -2.32 26.34 -3 26 C-3.47574438 23.45975996 -3.84007547 20.99948536 -4.125 18.4375 C-4.21136719 17.72658203 -4.29773438 17.01566406 -4.38671875 16.28320312 C-4.59934783 14.52310688 -4.80072697 12.76165836 -5 11 C-8.35722734 14.22727015 -10.51877623 16.5563287 -12 21 C-12.33 21.33 -12.66 21.66 -13 22 C-12.34 22.66 -11.68 23.32 -11 24 C-14 26 -14 26 -17 26 C-17 25.34 -17 24.68 -17 24 C-17.66 23.67 -18.32 23.34 -19 23 C-16.11124094 16.32905125 -12.49042659 11.98286309 -7.25 7 C-6.55261719 6.32066406 -5.85523438 5.64132813 -5.13671875 4.94140625 C-3.43332085 3.28467678 -1.72128631 1.63810147 0 0 Z " fill="#FEBD23" transform="translate(291,181)"/>
<path d="M0 0 C3.49989789 0.38887754 5.09501463 1.89898617 7.44921875 4.40625 C12.23308053 9.3226621 17.58055374 13.80429967 23 18 C17.497685 17.39683795 12.23932361 16.47900076 6.875 15.125 C6.19824219 14.96386719 5.52148438 14.80273438 4.82421875 14.63671875 C0.5609052 13.57295193 -3.1455397 12.10134129 -7 10 C-4 8 -4 8 -2 8 C-0.9254644 6.2236068 -0.9254644 6.2236068 -1 5 C-0.67449498 3.33178677 -0.34153937 1.66500443 0 0 Z " fill="#662F6B" transform="translate(329,314)"/>
<path d="M0 0 C2.29370226 7.82316305 3.433422 14.84524526 3 23 C2.01 23.33 1.02 23.66 0 24 C0.33 22.02 0.66 20.04 1 18 C0.34 17.67 -0.32 17.34 -1 17 C-0.34 15.02 0.32 13.04 1 11 C0.34 11 -0.32 11 -1 11 C-1 10.34 -1 9.68 -1 9 C-1.763125 9.495 -2.52625 9.99 -3.3125 10.5 C-6 12 -6 12 -9 12 C-9 13.98 -9 15.96 -9 18 C-10.98 18 -12.96 18 -15 18 C-15 17.34 -15 16.68 -15 16 C-15.66 16 -16.32 16 -17 16 C-15.65055051 11.83556986 -13.94928374 9.69125367 -10.625 6.875 C-9.85414063 6.21242187 -9.08328125 5.54984375 -8.2890625 4.8671875 C-2.32217573 0 -2.32217573 0 0 0 Z " fill="#BC2B7D" transform="translate(361,174)"/>
<path d="M0 0 C0 0.99 0 1.98 0 3 C-5.25714286 7 -5.25714286 7 -8 7 C-8.12375 7.61875 -8.2475 8.2375 -8.375 8.875 C-9 11 -9 11 -11 13 C-11.66 12.67 -12.32 12.34 -13 12 C-15.38545624 12.16914103 -15.38545624 12.16914103 -18 12.6875 C-18.886875 12.83574219 -19.77375 12.98398438 -20.6875 13.13671875 C-23.6151359 14.22963688 -23.70794954 15.2717447 -25 18 C-26.9453125 18.828125 -26.9453125 18.828125 -29.125 19.25 C-30.40375 19.4975 -31.6825 19.745 -33 20 C-33 20.66 -33 21.32 -33 22 C-36 24 -36 24 -38.1875 23.625 C-39.0846875 23.315625 -39.0846875 23.315625 -40 23 C-39.07960938 22.39414063 -38.15921875 21.78828125 -37.2109375 21.1640625 C-35.93192816 20.31825776 -34.65331289 19.47185696 -33.375 18.625 C-32.70073975 18.17890381 -32.02647949 17.73280762 -31.33178711 17.27319336 C-27.89430829 14.98381242 -24.49675209 12.66010926 -21.16796875 10.21484375 C-20.56098145 9.76995605 -19.95399414 9.32506836 -19.32861328 8.86669922 C-18.18684986 8.0235557 -17.05065692 7.17279264 -15.92138672 6.31298828 C-11.17110178 2.80844281 -6.01786605 0 0 0 Z " fill="#F3B004" transform="translate(320,115)"/>
<path d="M0 0 C0.703125 1.66796875 0.703125 1.66796875 1 4 C-0.328125 6.55078125 -0.328125 6.55078125 -2.25 9.3125 C-9.18934402 19.74916282 -10.18312668 28.58557961 -10.125 40.9375 C-10.12886719 41.78634766 -10.13273437 42.63519531 -10.13671875 43.50976562 C-10.13542969 44.31994141 -10.13414062 45.13011719 -10.1328125 45.96484375 C-10.13168457 46.6930835 -10.13055664 47.42132324 -10.12939453 48.17163086 C-10.11031064 50.09850934 -10.11031064 50.09850934 -9 52 C-10.98 52.495 -10.98 52.495 -13 53 C-14.81743519 47.54769444 -14.11526679 41.69660591 -14 36 C-14.00644531 35.10925781 -14.01289063 34.21851563 -14.01953125 33.30078125 C-13.70322913 23.70628347 -9.51555242 14.80463049 -6 6 C-6.66 5.67 -7.32 5.34 -8 5 C-5.64722731 2.27573689 -3.37503669 1.1858237 0 0 Z " fill="#DB3306" transform="translate(271,199)"/>
<path d="M0 0 C0.99 0.33 1.98 0.66 3 1 C2.690625 1.66 2.38125 2.32 2.0625 3 C0.41116352 7.66259712 -0.59957704 12.20126887 1 17 C0.34 17.99 -0.32 18.98 -1 20 C-0.67 20.66 -0.34 21.32 0 22 C-1.32 22.33 -2.64 22.66 -4 23 C-4.33 21.02 -4.66 19.04 -5 17 C-5.66 19.64 -6.32 22.28 -7 25 C-7.66 24.67 -8.32 24.34 -9 24 C-12.31442207 28.46726453 -12.66009167 32.62007164 -13 38 C-13.66 37.67 -14.32 37.34 -15 37 C-14.68435495 29.58234141 -12.94278959 23.76957921 -10 17 C-9.3127513 15.00697876 -8.63484067 13.01032877 -8 11 C-7.01 11 -6.02 11 -5 11 C-5 10.01 -5 9.02 -5 8 C-4.01 7.67 -3.02 7.34 -2 7 C-1.855625 6.21625 -1.71125 5.4325 -1.5625 4.625 C-1 2 -1 2 0 0 Z " fill="#63316C" transform="translate(304,233)"/>
<path d="M0 0 C0.33 0.66 0.66 1.32 1 2 C-0.82033698 5.57325407 -2.54754001 8.48290287 -5.1875 11.5 C-7.46255569 14.63800785 -7.70072058 17.18418743 -8 21 C-8.61488281 21.13535156 -9.22976563 21.27070313 -9.86328125 21.41015625 C-14.69782765 22.5661598 -14.69782765 22.5661598 -18.265625 25.7578125 C-19.18674509 27.88302063 -19.18674509 27.88302063 -20 31 C-20.99 31 -21.98 31 -23 31 C-23.33 33.97 -23.66 36.94 -24 40 C-25.32 39.67 -26.64 39.34 -28 39 C-28 39.99 -28 40.98 -28 42 C-28.66 42 -29.32 42 -30 42 C-26.52238988 32.86921323 -21.61996792 23.58178637 -14.63671875 16.65625 C-12.01691054 14.01703581 -9.69992862 11.27516869 -7.375 8.375 C-5.02397675 5.4462509 -2.72644273 2.58751572 0 0 Z " fill="#A3387F" transform="translate(327,202)"/>
<path d="M0 0 C1.04549908 3.13649725 1.00170317 3.9948905 0 7 C-0.33 7.33 -0.66 7.66 -1 8 C-0.34 8.33 0.32 8.66 1 9 C1 9.66 1 10.32 1 11 C0.195625 11.268125 -0.60875 11.53625 -1.4375 11.8125 C-2.283125 12.204375 -3.12875 12.59625 -4 13 C-5.34513424 16.14061025 -5.34513424 16.14061025 -4 20 C-6.97 20.33 -9.94 20.66 -13 21 C-13.62726108 22.54074808 -14.2516901 24.08264923 -14.875 25.625 C-15.24238281 26.53378906 -15.60976562 27.44257813 -15.98828125 28.37890625 C-17.08928229 31.12929904 -17.08928229 31.12929904 -18.0625 34.5625 C-18.371875 35.366875 -18.68125 36.17125 -19 37 C-20.485 37.495 -20.485 37.495 -22 38 C-20.59904544 31.3011828 -17.90073895 25.60106801 -14.5625 19.6875 C-14.17908447 19.00623047 -13.79566895 18.32496094 -13.40063477 17.62304688 C-11.20083114 13.81261419 -8.85752444 10.36384751 -6 7 C-5.43796875 6.33355469 -4.8759375 5.66710937 -4.296875 4.98046875 C-3.78640625 4.38878906 -3.2759375 3.79710937 -2.75 3.1875 C-2.22921875 2.58292969 -1.7084375 1.97835937 -1.171875 1.35546875 C-0.78515625 0.90816406 -0.3984375 0.46085938 0 0 Z " fill="#E63F14" transform="translate(260,156)"/>
<path d="M0 0 C0.33 0.66 0.66 1.32 1 2 C-2.00388109 8.26896922 -6.27347491 13.91540483 -11 19 C-11.66 19 -12.32 19 -13 19 C-13 19.66 -13 20.32 -13 21 C-14.64453125 22.32421875 -14.64453125 22.32421875 -16.8125 23.6875 C-17.52019531 24.14511719 -18.22789062 24.60273438 -18.95703125 25.07421875 C-21 26 -21 26 -24 25 C-24.375 22.8125 -24.375 22.8125 -24 20 C-22.16038352 18.00977164 -20.20813852 16.61010101 -18 15 C-15.525 15.99 -15.525 15.99 -13 17 C-12.731875 16.35933594 -12.46375 15.71867188 -12.1875 15.05859375 C-9.19933721 8.46301076 -5.78290439 4.33359088 0 0 Z " fill="#F8AB07" transform="translate(312,144)"/>
<path d="M0 0 C3.21880117 3.7935871 5.6163187 7.65829477 8 12 C5.92446352 12.5534764 4.15634036 13 2 13 C-1.11785113 13.64644661 -1.11785113 13.64644661 -2 16 C-5 15 -5 15 -6.625 13 C-8.43791989 9.04453842 -8.72790419 5.30661988 -9 1 C-8.01 1.495 -8.01 1.495 -7 2 C-7 2.99 -7 3.98 -7 5 C-5.35 5 -3.7 5 -2 5 C-2 4.34 -2 3.68 -2 3 C-1.34 3 -0.68 3 0 3 C0 2.01 0 1.02 0 0 Z " fill="#A9317D" transform="translate(321,299)"/>
<path d="M0 0 C0.33 0 0.66 0 1 0 C1.33 2.64 1.66 5.28 2 8 C2.99 8 3.98 8 5 8 C5.53122363 9.76774419 6.04964073 11.53934083 6.5625 13.3125 C6.85253906 14.29863281 7.14257812 15.28476562 7.44140625 16.30078125 C8 19 8 19 7 22 C6.34 22 5.68 22 5 22 C5 22.66 5 23.32 5 24 C3.35 24 1.7 24 0 24 C-3.57799687 17.90888629 -2.47493443 10.47077541 -1 3.8125 C-0.67 2.554375 -0.34 1.29625 0 0 Z " fill="#BB2E80" transform="translate(314,280)"/>
<path d="M0 0 C0.99 0 1.98 0 3 0 C11.18826401 9.79258037 11.34335076 20.83012305 11 33 C10.67 33 10.34 33 10 33 C10 31.02 10 29.04 10 27 C9.34 27 8.68 27 8 27 C8 22.71 8 18.42 8 14 C7.34 14 6.68 14 6 14 C6 14.66 6 15.32 6 16 C5.34 16 4.68 16 4 16 C3.67 14.68 3.34 13.36 3 12 C3.99 11.67 4.98 11.34 6 11 C5.34 10.01 4.68 9.02 4 8 C2.68 8.33 1.36 8.66 0 9 C0 10.98 0 12.96 0 15 C-1.65 15.33 -3.3 15.66 -5 16 C-3.50723624 10.60308488 -1.80304155 5.30094216 0 0 Z " fill="#F4CE21" transform="translate(344,72)"/>
<path d="M0 0 C0.66 0 1.32 0 2 0 C1.731875 0.7425 1.46375 1.485 1.1875 2.25 C-0.45587873 7.43961704 -1.71641776 12.71164116 -3 18 C-3.66 18 -4.32 18 -5 18 C-5 19.32 -5 20.64 -5 22 C-13.16047799 21.8014043 -19.64357196 19.42541581 -27 16 C-27 15.67 -27 15.34 -27 15 C-23.89196106 14.811634 -21.6987809 15.09093407 -18.6875 16 C-14.5273968 17.12816358 -11.28429686 17.15032621 -7 17 C-6.67 16.34 -6.34 15.68 -6 15 C-6.99 14.67 -7.98 14.34 -9 14 C-8 12 -8 12 -5 11 C-5 9.35 -5 7.7 -5 6 C-4.01 6.33 -3.02 6.66 -2 7 C-2 5.35 -2 3.7 -2 2 C-1.34 2 -0.68 2 0 2 C0 1.34 0 0.68 0 0 Z " fill="#CD1725" transform="translate(293,248)"/>
<path d="M0 0 C0.66 0 1.32 0 2 0 C0.58154369 3.10942394 -1.14678166 5.55118211 -3.3125 8.1875 C-6.76584099 12.53668677 -9.46932836 17.06693961 -12 22 C-12.66 22 -13.32 22 -14 22 C-15.45732062 28.64990964 -16.45136137 35.2142064 -17 42 C-17.99 41.67 -18.98 41.34 -20 41 C-19.01 40.505 -19.01 40.505 -18 40 C-18.02320313 39.21496094 -18.04640625 38.42992187 -18.0703125 37.62109375 C-18.20633967 29.70236916 -17.84739869 23.66510257 -13.375 16.9375 C-11.08141557 13.46685611 -10.5085988 11.22605034 -11 7 C-11 6.01 -11 5.02 -11 4 C-10.34 4 -9.68 4 -9 4 C-9 3.34 -9 2.68 -9 2 C-8.34 2.33 -7.68 2.66 -7 3 C-7 4.65 -7 6.3 -7 8 C-6.34 8 -5.68 8 -5 8 C-4.731875 7.4225 -4.46375 6.845 -4.1875 6.25 C-2.97070811 3.94449957 -1.69666121 1.97943808 0 0 Z " fill="#512A67" transform="translate(315,260)"/>
<path d="M0 0 C0.66 0.33 1.32 0.66 2 1 C1.53200031 3.40685554 1.06721711 5.77146183 0.375 8.125 C-0.2041405 10.21447673 -0.2041405 10.21447673 1 13 C-1 16 -1 16 -3.625 16.6875 C-4.40875 16.790625 -5.1925 16.89375 -6 17 C-6.80384842 10.77017473 -3.35019791 5.02529687 0 0 Z M-8 17 C-7.34 17.33 -6.68 17.66 -6 18 C-6.0721875 18.79664063 -6.144375 19.59328125 -6.21875 20.4140625 C-6.3115625 21.47367188 -6.404375 22.53328125 -6.5 23.625 C-6.5928125 24.66914063 -6.685625 25.71328125 -6.78125 26.7890625 C-7.04076598 29.98328497 -7.04076598 29.98328497 -6.96875 33.125 C-7.01112518 37.02351675 -7.96572257 40.25074432 -9 44 C-9.33 44 -9.66 44 -10 44 C-10.02716089 40.97910522 -10.04691657 37.95845871 -10.0625 34.9375 C-10.07087891 34.08994141 -10.07925781 33.24238281 -10.08789062 32.36914062 C-10.10680891 27.46930512 -9.91535264 22.82000376 -9 18 C-8.67 17.67 -8.34 17.34 -8 17 Z " fill="#E32615" transform="translate(247,176)"/>
<path d="M0 0 C0 3 0 3 -1 5 C-0.34 5 0.32 5 1 5 C1 5.66 1 6.32 1 7 C0.2575 7.226875 -0.485 7.45375 -1.25 7.6875 C-5.75662454 9.83838898 -8.01203987 13.5270897 -10 18 C-10.66 17.67 -11.32 17.34 -12 17 C-12.268125 17.598125 -12.53625 18.19625 -12.8125 18.8125 C-13.99087975 20.98319954 -15.14545086 22.38734857 -17 24 C-17.33 24 -17.66 24 -18 24 C-18.0787185 19.67048237 -17.91882592 17.1756157 -15.2109375 13.7109375 C-12.87854275 11.37854275 -10.48228953 9.17200333 -8 7 C-7.21625 6.29875 -6.4325 5.5975 -5.625 4.875 C-3.76665072 3.22903349 -1.89383989 1.6048616 0 0 Z " fill="#B02879" transform="translate(345,185)"/>
<path d="M0 0 C1.06546953 3.1964086 1.07427838 5.65747276 1 9 C0.01 9.33 -0.98 9.66 -2 10 C-2.144375 11.2375 -2.28875 12.475 -2.4375 13.75 C-2.71611841 16.03547854 -3.03818221 18.14509238 -3.625 20.375 C-4.20810381 22.11452693 -4.20810381 22.11452693 -3 24 C-3.763125 24.103125 -4.52625 24.20625 -5.3125 24.3125 C-8.01559942 24.76069823 -8.01559942 24.76069823 -9.5 26.5 C-11.49901075 28.49901075 -13.25393258 28.62890981 -16 29 C-15.60167969 28.49210937 -15.20335937 27.98421875 -14.79296875 27.4609375 C-10.71020339 22.15632265 -7.45853619 17.3841549 -6.0625 10.75 C-5 7 -5 7 -2.9375 5.8125 C-2.298125 5.544375 -1.65875 5.27625 -1 5 C-0.18828772 2.44480079 -0.18828772 2.44480079 0 0 Z " fill="#EF9800" transform="translate(319,131)"/>
<path d="M0 0 C0.7425 0.37125 1.485 0.7425 2.25 1.125 C4.94283647 2.29515863 4.94283647 2.29515863 7.3125 1.125 C7.869375 0.75375 8.42625 0.3825 9 0 C12 2 12 2 14 5 C14.99 5 15.98 5 17 5 C18.66666667 5 20.33333333 5 22 5 C21.34 7.31 20.68 9.62 20 12 C15.99503795 12.68169567 14.05848682 12.74591353 10.671875 10.359375 C8.3716461 8.30287896 6.16755089 6.19559684 4 4 C3.25105469 3.25234375 2.50210938 2.5046875 1.73046875 1.734375 C1.15941406 1.16203125 0.58835938 0.5896875 0 0 Z " fill="#E41A15" transform="translate(252,251)"/>
<path d="M0 0 C0.33 0.66 0.66 1.32 1 2 C1.66 2.33 2.32 2.66 3 3 C1.7934375 3.6496875 1.7934375 3.6496875 0.5625 4.3125 C-2.27846354 5.80474002 -2.27846354 5.80474002 -3 9 C-2.01 9.33 -1.02 9.66 0 10 C-0.33 10.66 -0.66 11.32 -1 12 C-6.75 10.125 -6.75 10.125 -9 9 C-9 8.34 -9 7.68 -9 7 C-9.61875 6.896875 -10.2375 6.79375 -10.875 6.6875 C-13 6 -13 6 -15 3 C-13.68 3.33 -12.36 3.66 -11 4 C-10.67 3.01 -10.34 2.02 -10 1 C-9.36191406 1.01160156 -8.72382813 1.02320313 -8.06640625 1.03515625 C-7.24011719 1.04417969 -6.41382813 1.05320313 -5.5625 1.0625 C-4.32693359 1.07990234 -4.32693359 1.07990234 -3.06640625 1.09765625 C-1.00836062 1.23267348 -1.00836062 1.23267348 0 0 Z " fill="#FBF6E8" transform="translate(313,209)"/>
<path d="M0 0 C2.6875 0.3125 2.6875 0.3125 5 1 C4.38125 1.37125 3.7625 1.7425 3.125 2.125 C0.7439935 3.90625604 0.7439935 3.90625604 0 7.0625 C-1 10 -1 10 -2.9375 11.4375 C-5 12 -5 12 -8 11 C-8 11.66 -8 12.32 -8 13 C-9.65 13 -11.3 13 -13 13 C-13 11.68 -13 10.36 -13 9 C-12.34 9 -11.68 9 -11 9 C-10.67 8.01 -10.34 7.02 -10 6 C-7.68020619 4.96898053 -5.34570085 3.97063483 -3 3 C-2.46375 2.4225 -1.9275 1.845 -1.375 1.25 C-0.92125 0.8375 -0.4675 0.425 0 0 Z " fill="#EC8A0A" transform="translate(312,154)"/>
<path d="M0 0 C0.99 0.33 1.98 0.66 3 1 C2.125 6.75 2.125 6.75 1 9 C0.77811206 10.88340377 0.60810213 12.77305191 0.46484375 14.6640625 C0.37783203 15.78554687 0.29082031 16.90703125 0.20117188 18.0625 C0.11416016 19.238125 0.02714844 20.41375 -0.0625 21.625 C-0.15337891 22.80835938 -0.24425781 23.99171875 -0.33789062 25.2109375 C-0.56232233 28.14036185 -0.78285965 31.07002763 -1 34 C-0.34 34.33 0.32 34.66 1 35 C-0.32 34.67 -1.64 34.34 -3 34 C-2.505 31.03 -2.505 31.03 -2 28 C-2.66 28 -3.32 28 -4 28 C-4.33 24.37 -4.66 20.74 -5 17 C-4.01 16.34 -3.02 15.68 -2 15 C-1.71108913 12.9924382 -1.71108913 12.9924382 -1.9375 10.75 C-2.08620705 6.74784057 -1.53792778 3.74869895 0 0 Z " fill="#D80C12" transform="translate(258,215)"/>
<path d="M0 0 C0.33 0.66 0.66 1.32 1 2 C0.67 2.66 0.34 3.32 0 4 C-0.99 4 -1.98 4 -3 4 C-3 5.65 -3 7.3 -3 9 C-3.99 9 -4.98 9 -6 9 C-6.33 10.32 -6.66 11.64 -7 13 C-8.65 12.67 -10.3 12.34 -12 12 C-12.2475 12.639375 -12.495 13.27875 -12.75 13.9375 C-14 16 -14 16 -16 16.875 C-16.66 16.91625 -17.32 16.9575 -18 17 C-18.66 16.34 -19.32 15.68 -20 15 C-18.84102736 11.52308207 -18.1359157 10.77984405 -15 9 C-14.01 9.020625 -13.02 9.04125 -12 9.0625 C-8.90402545 9.29830801 -8.90402545 9.29830801 -6.6875 7.1875 C-4.82368826 5.01952395 -4.82368826 5.01952395 -4 2 C-1.9375 0.8125 -1.9375 0.8125 0 0 Z " fill="#F17C08" transform="translate(306,222)"/>
<path d="M0 0 C0.9237014 2.7711042 1.27294082 3.94722825 0.5625 6.6875 C-0.11291173 9.1826647 -0.11291173 9.1826647 -0.25 12.5625 C-1 16 -1 16 -3.4375 17.9375 C-6 19 -6 19 -8 19 C-6.62107235 11.41589791 -4.71241771 6.07653863 0 0 Z " fill="#F09502" transform="translate(273,200)"/>
<path d="M0 0 C0.66 0.66 1.32 1.32 2 2 C2.33 2 2.66 2 3 2 C3 3.65 3 5.3 3 7 C1.2421875 7.94401042 -0.515625 8.88802083 -2.2734375 9.83203125 C-4.30502365 11.04763493 -4.30502365 11.04763493 -6 14 C-6 13.34 -6 12.68 -6 12 C-6.99 12.33 -7.98 12.66 -9 13 C-8.51176471 6.65294118 -8.51176471 6.65294118 -6.1875 3.6875 C-4.17999376 2.13885233 -2.32509135 0.99646772 0 0 Z " fill="#E56717" transform="translate(269,149)"/>
<path d="M0 0 C1.32 0.33 2.64 0.66 4 1 C2.43416404 5.03721561 -0.44173865 7.47070582 -3.625 10.25 C-4.140625 10.70890625 -4.65625 11.1678125 -5.1875 11.640625 C-6.4534602 12.76592296 -7.72607942 13.88372177 -9 15 C-9.66 14.67 -10.32 14.34 -11 14 C-11 13.34 -11 12.68 -11 12 C-11.66 12 -12.32 12 -13 12 C-12.67 10.68 -12.34 9.36 -12 8 C-8.71303767 7.20046862 -7.28976808 6.90341064 -4 8 C-4.33 6.68 -4.66 5.36 -5 4 C-3.02 3.67 -1.04 3.34 1 3 C0.67 2.01 0.34 1.02 0 0 Z " fill="#E57213" transform="translate(303,164)"/>
<path d="M0 0 C4.15448646 0.53677436 6.45962335 1.80149207 9.6875 4.4375 C10.45449219 5.05496094 11.22148437 5.67242187 12.01171875 6.30859375 C14 8 14 8 16 10 C1.44 8.44 1.44 8.44 -2 5 C-1.34 3.35 -0.68 1.7 0 0 Z " fill="#5B3367" transform="translate(336,322)"/>
<path d="M0 0 C0.33 0 0.66 0 1 0 C0.99214478 1.12027588 0.99214478 1.12027588 0.98413086 2.26318359 C0.96339599 5.63378057 0.95035101 9.00436414 0.9375 12.375 C0.92912109 13.550625 0.92074219 14.72625 0.91210938 15.9375 C0.90888672 17.05898437 0.90566406 18.18046875 0.90234375 19.3359375 C0.89710693 20.37282715 0.89187012 21.4097168 0.88647461 22.47802734 C0.82859185 24.9959668 0.82859185 24.9959668 2 27 C0.68 27.33 -0.64 27.66 -2 28 C-5.01840485 18.94478544 -3.01682358 8.79906879 0 0 Z " fill="#EF3F18" transform="translate(260,224)"/>
<path d="M0 0 C0.66 0 1.32 0 2 0 C1.67422369 7.16707877 -1.65443628 12.76927124 -5 19 C-6.32 19 -7.64 19 -9 19 C-9 16.03 -9 13.06 -9 10 C-7.02 9.67 -5.04 9.34 -3 9 C-2.01 6.03 -1.02 3.06 0 0 Z " fill="#A32D72" transform="translate(361,198)"/>
<path d="M0 0 C-0.19335938 0.56847656 -0.38671875 1.13695312 -0.5859375 1.72265625 C-0.84632813 2.49480469 -1.10671875 3.26695312 -1.375 4.0625 C-1.63023437 4.81660156 -1.88546875 5.57070313 -2.1484375 6.34765625 C-2.56996094 7.66056641 -2.56996094 7.66056641 -3 9 C-3.5259375 10.62421875 -3.5259375 10.62421875 -4.0625 12.28125 C-5.09831059 16.38996534 -5.43988392 20.22225251 -5.625 24.4375 C-5.66367187 25.16904297 -5.70234375 25.90058594 -5.7421875 26.65429688 C-5.83533984 28.43583532 -5.91870286 30.21788122 -6 32 C-6.33 32 -6.66 32 -7 32 C-7.33 25.4 -7.66 18.8 -8 12 C-7.01 11.67 -6.02 11.34 -5 11 C-5 10.01 -5 9.02 -5 8 C-6.65 8.66 -8.3 9.32 -10 10 C-8.50006099 6.10015857 -4.53875449 0 0 0 Z " fill="#B61B7B" transform="translate(324,256)"/>
<path d="M0 0 C0.66 0.33 1.32 0.66 2 1 C-0.02028608 5.44462939 -2.31960834 8.78967289 -5.625 12.375 C-6.42164063 13.24898437 -7.21828125 14.12296875 -8.0390625 15.0234375 C-8.68617188 15.67570313 -9.33328125 16.32796875 -10 17 C-10.33 17 -10.66 17 -11 17 C-11 14.03 -11 11.06 -11 8 C-9.865625 7.5875 -8.73125 7.175 -7.5625 6.75 C-3.88306522 5.45821291 -3.88306522 5.45821291 -3.25 2.875 C-3.1675 2.25625 -3.085 1.6375 -3 1 C-2.01 0.67 -1.02 0.34 0 0 Z " fill="#DF5B07" transform="translate(283,184)"/>
<path d="M0 0 C1.65 0 3.3 0 5 0 C2.03064369 4.05390843 -0.98258522 8.06589869 -4.1875 11.9375 C-4.65542969 12.50339844 -5.12335938 13.06929687 -5.60546875 13.65234375 C-7 15 -7 15 -10 16 C-10 13.03 -10 10.06 -10 7 C-8.02 7 -6.04 7 -4 7 C-2.68 4.69 -1.36 2.38 0 0 Z " fill="#743567" transform="translate(338,233)"/>
<path d="M0 0 C0.33 0 0.66 0 1 0 C1.03996094 0.89460937 1.07992188 1.78921875 1.12109375 2.7109375 C1.96482717 12.48157879 4.714353 17.49388725 12 24 C8.98968256 24.93423645 8.13349732 25.04449911 5 24 C3.96708324 22.01679982 2.9662501 20.01652194 2 18 C1.34 17.67 0.68 17.34 0 17 C0 11.39 0 5.78 0 0 Z " fill="#EDC02B" transform="translate(288,190)"/>
<path d="M0 0 C0.66 0 1.32 0 2 0 C2 0.66 2 1.32 2 2 C3.98 2.66 5.96 3.32 8 4 C7.60217934 6.68528947 6.99752331 8.00300741 5.25 10.125 C2.64887468 13.44866013 1.01472439 16.87970934 -0.75390625 20.6953125 C-1.95050838 22.90846378 -3.13002608 24.34141444 -5 26 C-4.44894091 22.0507432 -3.61064629 18.65079826 -2 15 C-1.01 15 -0.02 15 1 15 C1 13.35 1 11.7 1 10 C1.99 10 2.98 10 4 10 C4.33 8.02 4.66 6.04 5 4 C4.360625 3.896875 3.72125 3.79375 3.0625 3.6875 C2.381875 3.460625 1.70125 3.23375 1 3 C0.67 2.01 0.34 1.02 0 0 Z " fill="#E27E31" transform="translate(302,216)"/>
<path d="M0 0 C1.26575537 3.7972661 0.51725572 5.69680018 -0.4375 9.5625 C-2.89366226 20.57016296 -1.78910392 29.91394538 0 41 C-0.66 41 -1.32 41 -2 41 C-6.83060867 18.44152651 -6.83060867 18.44152651 -3 10 C-2.56111075 7.79745973 -2.56111075 7.79745973 -2.375 5.6875 C-2.25125 4.470625 -2.1275 3.25375 -2 2 C-1.34 2 -0.68 2 0 2 C0 1.34 0 0.68 0 0 Z " fill="#FCD7D7" transform="translate(238,189)"/>
<path d="M0 0 C0.33 0.66 0.66 1.32 1 2 C-1.93298909 8.24854198 -6.31662013 12.98696475 -11 18 C-12.140625 14.3046875 -12.140625 14.3046875 -10.875 11.5625 C-8.80496268 8.733449 -6.53858341 6.41475007 -4 4 C-3.236875 3.236875 -2.47375 2.47375 -1.6875 1.6875 C-1.130625 1.130625 -0.57375 0.57375 0 0 Z " fill="#FDC80E" transform="translate(312,144)"/>
<path d="M0 0 C0.66 0 1.32 0 2 0 C4.43773707 5.72380664 4.36716778 11.19945134 4.375 17.3125 C4.41173828 18.80426758 4.41173828 18.80426758 4.44921875 20.32617188 C4.47465541 26.78284393 3.78451751 32.57445809 0 38 C-1.485 38.495 -1.485 38.495 -3 39 C-1 34 -1 34 0.0625 31.5625 C2.05087216 26.12761609 2.18218206 20.60774354 2.1875 14.875 C2.19974609 14.17246094 2.21199219 13.46992187 2.22460938 12.74609375 C2.23545838 8.92001244 1.92520442 6.30252458 0 3 C0 2.01 0 1.02 0 0 Z " fill="#FEF8C6" transform="translate(353,83)"/>
<path d="M0 0 C0.99 0 1.98 0 3 0 C3.66 2.31 4.32 4.62 5 7 C3.35 7.66 1.7 8.32 0 9 C0 10.98 0 12.96 0 15 C-1.65 15.33 -3.3 15.66 -5 16 C-3.50723624 10.60308488 -1.80304155 5.30094216 0 0 Z " fill="#F6BA0C" transform="translate(344,72)"/>
<path d="M0 0 C0.33 0 0.66 0 1 0 C1.03738281 0.65226562 1.07476562 1.30453125 1.11328125 1.9765625 C1.51493762 7.31622957 2.16761609 11.3204092 5 16 C4.34 16.66 3.68 17.32 3 18 C3.33 18.33 3.66 18.66 4 19 C3.67 19.99 3.34 20.98 3 22 C3 21.34 3 20.68 3 20 C2.38125 19.7525 1.7625 19.505 1.125 19.25 C-1.35068687 17.79371361 -1.95125002 16.62187494 -3 14 C-2.34 14 -1.68 14 -1 14 C-1.01160156 13.32453125 -1.02320313 12.6490625 -1.03515625 11.953125 C-1.04417969 11.06109375 -1.05320312 10.1690625 -1.0625 9.25 C-1.07410156 8.36828125 -1.08570313 7.4865625 -1.09765625 6.578125 C-1.00826198 4.2181162 -0.66912821 2.25501476 0 0 Z M2 13 C3 15 3 15 3 15 Z " fill="#7F3D7B" transform="translate(299,288)"/>
<path d="M0 0 C0.66 0 1.32 0 2 0 C3.35439668 2.70879335 3.06501451 5.00933268 3 8 C2.67 7.34 2.34 6.68 2 6 C1.236875 6.495 0.47375 6.99 -0.3125 7.5 C-3 9 -3 9 -6 9 C-6 9.66 -6 10.32 -6 11 C-6.66 11 -7.32 11 -8 11 C-8 10.34 -8 9.68 -8 9 C-8.66 8.67 -9.32 8.34 -10 8 C-6.96821876 5.38929949 -4.8345758 3.95864395 -1 3 C-0.67 2.01 -0.34 1.02 0 0 Z " fill="#D20878" transform="translate(358,177)"/>
<path d="M0 0 C0.66 0.33 1.32 0.66 2 1 C1.01 2.485 1.01 2.485 0 4 C-0.66 4 -1.32 4 -2 4 C-2.165 4.61875 -2.33 5.2375 -2.5 5.875 C-4.90181375 9.27756949 -8.00162134 9.22612026 -12 10 C-12 10.66 -12 11.32 -12 12 C-15 14 -15 14 -17.1875 13.625 C-17.785625 13.41875 -18.38375 13.2125 -19 13 C-17.96359375 12.31292969 -16.9271875 11.62585938 -15.859375 10.91796875 C-14.48954222 10.00787437 -13.11975284 9.09771469 -11.75 8.1875 C-10.72712891 7.50977539 -10.72712891 7.50977539 -9.68359375 6.81835938 C-6.38807647 4.62668041 -3.12913895 2.42750212 0 0 Z " fill="#EAA729" transform="translate(299,125)"/>
<path d="M0 0 C0.99 0.33 1.98 0.66 3 1 C2.98839844 1.97582031 2.97679687 2.95164063 2.96484375 3.95703125 C2.95582031 5.22933594 2.94679688 6.50164062 2.9375 7.8125 C2.92589844 9.07707031 2.91429687 10.34164062 2.90234375 11.64453125 C2.83840884 14.99605237 2.83840884 14.99605237 4 18 C4.66 18.33 5.32 18.66 6 19 C5.67 21.31 5.34 23.62 5 26 C4.34 26 3.68 26 3 26 C2.67 23.36 2.34 20.72 2 18 C1.34 18 0.68 18 0 18 C0 12.06 0 6.12 0 0 Z " fill="#F7A009" transform="translate(281,206)"/>
<path d="M0 0 C0.99 1.32 1.98 2.64 3 4 C2.34 4 1.68 4 1 4 C0.938125 5.093125 0.87625 6.18625 0.8125 7.3125 C-0.12832252 14.85252049 -3.38772184 21.87834744 -9 27 C-9.66 26.67 -10.32 26.34 -11 26 C-10.61328125 25.39414063 -10.2265625 24.78828125 -9.828125 24.1640625 C-5.13851212 16.61889326 -0.94444495 8.97222705 0 0 Z " fill="#E9BC49" transform="translate(343,68)"/>
<path d="M0 0 C3.2549815 4.06872688 5.53963766 7.51862573 8 12 C4.84319701 12.84181413 2.27427197 13 -1 13 C-0.67 8.71 -0.34 4.42 0 0 Z " fill="#973075" transform="translate(321,299)"/>
<path d="M0 0 C0.66 0.99 1.32 1.98 2 3 C1.01 4.485 1.01 4.485 0 6 C-0.66 5.67 -1.32 5.34 -2 5 C-2.268125 5.598125 -2.53625 6.19625 -2.8125 6.8125 C-3.99087975 8.98319954 -5.14545086 10.38734857 -7 12 C-7.33 12 -7.66 12 -8 12 C-7.73768157 6.66619197 -7.73768157 6.66619197 -7 4 C-4.5625 2.0625 -4.5625 2.0625 -2 1 C-1.34 0.67 -0.68 0.34 0 0 Z " fill="#A22877" transform="translate(335,197)"/>
<path d="M0 0 C1.04549908 3.13649725 1.00170317 3.9948905 0 7 C-0.33 7.33 -0.66 7.66 -1 8 C-0.34 8.33 0.32 8.66 1 9 C1 9.66 1 10.32 1 11 C-0.32 11.33 -1.64 11.66 -3 12 C-3 11.34 -3 10.68 -3 10 C-6.12197478 11.3089572 -6.12197478 11.3089572 -8 14 C-8.66 14 -9.32 14 -10 14 C-8.6113673 11.02245105 -6.98738657 8.48841335 -5 5.875 C-4.484375 5.19179687 -3.96875 4.50859375 -3.4375 3.8046875 C-2 2 -2 2 0 0 Z " fill="#DC6437" transform="translate(260,156)"/>
<path d="M0 0 C0.66 0.33 1.32 0.66 2 1 C1.67 3.31 1.34 5.62 1 8 C-0.670625 8.2165625 -0.670625 8.2165625 -2.375 8.4375 C-5.82142047 8.78372035 -5.82142047 8.78372035 -8 10 C-8.66 9.34 -9.32 8.68 -10 8 C-9.34 8 -8.68 8 -8 8 C-7.67 6.68 -7.34 5.36 -7 4 C-4.69 3.34 -2.38 2.68 0 2 C0 1.34 0 0.68 0 0 Z " fill="#F29407" transform="translate(287,135)"/>
<path d="M0 0 C0.66 0.99 1.32 1.98 2 3 C3.98 2.67 5.96 2.34 8 2 C5.69281189 6.28477792 3.67033927 9.72291137 0 13 C-1.4617773 8.6146681 -2.44935236 5.47981638 -1 1 C-0.67 0.67 -0.34 0.34 0 0 Z " fill="#953977" transform="translate(347,216)"/>
<path d="M0 0 C1.60670684 3.21341369 0.82510855 6.62958968 0.5625 10.125 C0.51029297 10.87910156 0.45808594 11.63320312 0.40429688 12.41015625 C0.27454996 14.2737937 0.13792512 16.13694996 0 18 C0.66 18 1.32 18 2 18 C2.33 20.31 2.66 22.62 3 25 C-1.02834433 21.36149544 -1.87699085 19.26565694 -2.16796875 13.90625 C-2.17441406 12.7821875 -2.18085938 11.658125 -2.1875 10.5 C-2.20167969 9.3759375 -2.21585937 8.251875 -2.23046875 7.09375 C-2.00970218 4.13023944 -1.5460647 2.4932585 0 0 Z " fill="#FEF7BE" transform="translate(291,183)"/>
<path d="M0 0 C0.33 0.66 0.66 1.32 1 2 C1.99 2 2.98 2 4 2 C3.34 3.98 2.68 5.96 2 8 C1.34 8 0.68 8 0 8 C0 8.66 0 9.32 0 10 C-0.66 10 -1.32 10 -2 10 C-2.33 10.66 -2.66 11.32 -3 12 C-3.33 9.03 -3.66 6.06 -4 3 C-3.01 3 -2.02 3 -1 3 C-0.67 2.01 -0.34 1.02 0 0 Z " fill="#E65117" transform="translate(293,240)"/>
<path d="M0 0 C0.33 0 0.66 0 1 0 C1.3690205 15.74487472 1.3690205 15.74487472 -1 23 C-1.33 23 -1.66 23 -2 23 C-2.0582253 19.91674642 -2.09367134 16.83363495 -2.125 13.75 C-2.14175781 12.87730469 -2.15851563 12.00460938 -2.17578125 11.10546875 C-2.18222656 10.26113281 -2.18867188 9.41679687 -2.1953125 8.546875 C-2.20578613 7.77182617 -2.21625977 6.99677734 -2.22705078 6.19824219 C-1.97326556 3.74116461 -1.22444152 2.12688458 0 0 Z " fill="#E10A15" transform="translate(239,197)"/>
<path d="M0 0 C0.33 0.66 0.66 1.32 1 2 C0.67 2.66 0.34 3.32 0 4 C-0.66 4 -1.32 4 -2 4 C-2.12375 4.639375 -2.2475 5.27875 -2.375 5.9375 C-2.58125 6.618125 -2.7875 7.29875 -3 8 C-3.99 8.495 -3.99 8.495 -5 9 C-5.65555119 11.52733235 -5.65555119 11.52733235 -6 14 C-8.97 14.66 -11.94 15.32 -15 16 C-12.2239921 12.40147125 -9.34645017 9.08225674 -6 6 C-5.34 6 -4.68 6 -4 6 C-3.67 5.01 -3.34 4.02 -3 3 C-2.34 3 -1.68 3 -1 3 C-0.67 2.01 -0.34 1.02 0 0 Z " fill="#EDB73B" transform="translate(326,101)"/>
<path d="M0 0 C1.0326802 2.78823655 1.04509293 3.8677274 0.0625 6.75 C-0.288125 7.4925 -0.63875 8.235 -1 9 C-1.99 9 -2.98 9 -4 9 C-4.33 11.97 -4.66 14.94 -5 18 C-6.32 17.67 -7.64 17.34 -9 17 C-9 17.99 -9 18.98 -9 20 C-9.66 20 -10.32 20 -11 20 C-9.60244576 16.31553882 -7.95204714 12.89445774 -6.0625 9.4375 C-5.30646484 8.04337891 -5.30646484 8.04337891 -4.53515625 6.62109375 C-3.15712111 4.26826531 -1.68592319 2.13885778 0 0 Z " fill="#913C4C" transform="translate(308,224)"/>
<path d="M0 0 C-3.96 3.96 -7.92 7.92 -12 12 C-12.66 10.68 -13.32 9.36 -14 8 C-13.34 7.34 -12.68 6.68 -12 6 C-11.01 6 -10.02 6 -9 6 C-8.7525 5.21625 -8.505 4.4325 -8.25 3.625 C-7 1 -7 1 -5.0625 -0.375 C-3 -1 -3 -1 0 0 Z " fill="#EFAC1C" transform="translate(339,137)"/>
<path d="M0 0 C0.33 0.66 0.66 1.32 1 2 C-1.37027729 6.8317191 -3.89950696 10.4252112 -8 14 C-8.99 14.33 -9.98 14.66 -11 15 C-9.58319756 10.67953102 -7.46236215 7.99538801 -4.375 4.6875 C-3.55773437 3.80449219 -2.74046875 2.92148438 -1.8984375 2.01171875 C-0.95871094 1.01591797 -0.95871094 1.01591797 0 0 Z " fill="#9F427D" transform="translate(327,202)"/>
<path d="M0 0 C1 2 1 2 0.75 3.9375 C0 6 0 6 -1.4140625 7.35546875 C-5.23550525 11.31809781 -7.30525156 17.61569956 -8 23 C-8.99 23.33 -9.98 23.66 -11 24 C-9.01536894 15.02781375 -4.70955516 7.76349472 0 0 Z " fill="#CF463C" transform="translate(249,170)"/>
<path d="M0 0 C1.65780405 3.3156081 0.03685158 6.61375062 -1 10 C-1.50967405 11.31687356 -2.03039896 12.62952749 -2.5625 13.9375 C-4.24619103 18.21475549 -4.69378838 22.43850278 -5 27 C-5.66 26.67 -6.32 26.34 -7 26 C-6.68435495 18.58234141 -4.94278959 12.76957921 -2 6 C-1.3127513 4.00697876 -0.63484067 2.01032877 0 0 Z " fill="#6A2A4D" transform="translate(296,244)"/>
<path d="M0 0 C1.28727786 3.86183357 0.25270003 6.30050575 -1 10 C-1.23074219 10.70253906 -1.46148437 11.40507812 -1.69921875 12.12890625 C-2.99672841 15.85667211 -4.01837303 18.3090609 -7 21 C-6.51966194 16.10055182 -5.56142416 13.13768517 -3 9 C-1.89062553 6.03330176 -0.92993879 3.02724756 0 0 Z " fill="#9F2D79" transform="translate(332,214)"/>
<path d="M0 0 C0.66 0.33 1.32 0.66 2 1 C0.125 5.875 0.125 5.875 -1 7 C-0.34 7.66 0.32 8.32 1 9 C-2 11 -2 11 -5 11 C-5 10.34 -5 9.68 -5 9 C-5.66 8.67 -6.32 8.34 -7 8 C-6.01 7.67 -5.02 7.34 -4 7 C-3.28272222 5.35448038 -2.61674772 3.68577711 -2 2 C-1.34 1.34 -0.68 0.68 0 0 Z " fill="#F8B905" transform="translate(279,196)"/>
<path d="M0 0 C0 0.99 0 1.98 0 3 C-3.64977257 5.90322818 -5.25852179 7 -10 7 C-9.67 5.35 -9.34 3.7 -9 2 C-3.375 0 -3.375 0 0 0 Z " fill="#F8AA09" transform="translate(320,115)"/>
<path d="M0 0 C0.33 1.32 0.66 2.64 1 4 C-0.52994792 5.20442708 -2.05989583 6.40885417 -3.58984375 7.61328125 C-5.27155077 9.05683091 -5.27155077 9.05683091 -6 12 C-7.65 12 -9.3 12 -11 12 C-9.85996765 8.57990294 -8.77829802 7.71130558 -6.0625 5.4375 C-3.96656037 3.66869432 -1.94005112 1.94005112 0 0 Z " fill="#FDF0D2" transform="translate(331,144)"/>
<path d="M0 0 C0.33 0.66 0.66 1.32 1 2 C0.67 2.66 0.34 3.32 0 4 C-0.66 4 -1.32 4 -2 4 C-2 4.99 -2 5.98 -2 7 C-2.66 7 -3.32 7 -4 7 C-4 7.66 -4 8.32 -4 9 C-9.625 11 -9.625 11 -13 11 C-12.278125 10.443125 -11.55625 9.88625 -10.8125 9.3125 C-7.95119715 7.03615962 -7.95119715 7.03615962 -5.375 4.375 C-3 2 -3 2 0 0 Z " fill="#E1812B" transform="translate(279,139)"/>
<path d="M0 0 C4.87871896 -0.4573799 8.58654806 1.17589184 13 3 C14.485 3.5878125 14.485 3.5878125 16 4.1875 C16.66 4.455625 17.32 4.72375 18 5 C18 5.66 18 6.32 18 7 C5.33029613 4.10933941 5.33029613 4.10933941 0 1 C0 0.67 0 0.34 0 0 Z " fill="#CA2634" transform="translate(266,263)"/>
<path d="M0 0 C2.52264461 1.26132231 3.52652887 2.61438008 5 5 C4.67 5.99 4.34 6.98 4 8 C2.35 8 0.7 8 -1 8 C-1 7.34 -1 6.68 -1 6 C-1.66 6 -2.32 6 -3 6 C-1.125 1.125 -1.125 1.125 0 0 Z " fill="#BC1476" transform="translate(347,184)"/>
<path d="M0 0 C0.33 0 0.66 0 1 0 C1.33 4.95 1.66 9.9 2 15 C0.68 15.33 -0.64 15.66 -2 16 C-2.2396943 10.36718401 -1.38529821 5.45461169 0 0 Z " fill="#C12781" transform="translate(314,280)"/>
<path d="M0 0 C0.99 1.32 1.98 2.64 3 4 C3.33 4 3.66 4 4 4 C4.125 6.875 4.125 6.875 4 10 C3.34 10.66 2.68 11.32 2 12 C1.60235737 13.98821313 1.26224651 15.98944339 1 18 C0.67 18 0.34 18 0 18 C0 12.06 0 6.12 0 0 Z " fill="#553E6B" transform="translate(288,266)"/>
<path d="M0 0 C1.06546953 3.1964086 1.07427838 5.65747276 1 9 C-0.65 9.33 -2.3 9.66 -4 10 C-4 10.99 -4 11.98 -4 13 C-4.66 13 -5.32 13 -6 13 C-5.75 10.125 -5.75 10.125 -5 7 C-3.68352881 6.30062468 -2.34977849 5.63270867 -1 5 C-0.18828772 2.44480079 -0.18828772 2.44480079 0 0 Z " fill="#F5A901" transform="translate(319,131)"/>
<path d="M0 0 C0.7425 0.37125 1.485 0.7425 2.25 1.125 C5.28007196 2.44109315 5.28007196 2.44109315 9 0 C9.66 2.97 10.32 5.94 11 9 C6.7973607 6.36113346 3.43361902 3.63559661 0 0 Z " fill="#D91E1C" transform="translate(252,251)"/>
<path d="M0 0 C0 3.60773898 -1.17725722 4.84854626 -3.48828125 7.50390625 C-5.77412701 9.76612569 -8.25180284 11.33829939 -11 13 C-11.66 12.67 -12.32 12.34 -13 12 C-4.738041 3.55353075 -4.738041 3.55353075 0 0 Z " fill="#FDE9CA" transform="translate(314,160)"/>
<path d="M0 0 C0.66 0.33 1.32 0.66 2 1 C2 1.99 2 2.98 2 4 C2.99 4.66 3.98 5.32 5 6 C2.6875 7.5625 2.6875 7.5625 0 9 C-0.99 8.67 -1.98 8.34 -3 8 C-3.36923077 3.44615385 -3.36923077 3.44615385 -1.5 1.1875 C-1.005 0.795625 -0.51 0.40375 0 0 Z " fill="#F49B09" transform="translate(291,161)"/>
<path d="M0 0 C1.32 0.33 2.64 0.66 4 1 C2.4169423 5.2742558 -0.50568404 7.26531794 -4 10 C-5 8 -5 8 -5 4 C-3.02 3.67 -1.04 3.34 1 3 C0.67 2.01 0.34 1.02 0 0 Z " fill="#E4831D" transform="translate(303,164)"/>
<path d="M0 0 C0.99 0.33 1.98 0.66 3 1 C2.28547412 5.76350585 1.20465156 10.34201396 0 15 C-0.66 15 -1.32 15 -2 15 C-2.21755666 9.5610835 -2.10428384 5.12919186 0 0 Z " fill="#E31218" transform="translate(258,215)"/>
<path d="M0 0 C1.50416548 3.00833096 0.60839737 5.34961578 0.0625 8.625 C-0.13214844 9.81351563 -0.32679688 11.00203125 -0.52734375 12.2265625 C-0.68332031 13.14179688 -0.83929688 14.05703125 -1 15 C-1.33 15 -1.66 15 -2 15 C-2.33 12.36 -2.66 9.72 -3 7 C-4.65 8.32 -6.3 9.64 -8 11 C-7.43040847 7.37386801 -6.07625466 5.74482259 -3.4375 3.25 C-2.79683594 2.63640625 -2.15617187 2.0228125 -1.49609375 1.390625 C-1.00238281 0.93171875 -0.50867188 0.4728125 0 0 Z " fill="#F7D212" transform="translate(289,185)"/>
<path d="M0 0 C0.99 0 1.98 0 3 0 C3.99 3.63 4.98 7.26 6 11 C5.01 11.495 5.01 11.495 4 12 C3.525625 11.360625 3.05125 10.72125 2.5625 10.0625 C1.16261274 8.11706694 1.16261274 8.11706694 0 7 C-0.04092937 4.66702567 -0.04241723 2.33294775 0 0 Z " fill="#AE377C" transform="translate(316,288)"/>
<path d="M0 0 C1.07948085 3.23844254 0.88218282 3.88554326 0 7 C-0.22390317 9.75317974 -0.41393662 12.49305329 -0.5625 15.25 C-0.60568359 15.99507813 -0.64886719 16.74015625 -0.69335938 17.5078125 C-0.79896725 19.338349 -0.89994201 21.16915176 -1 23 C-1.33 23 -1.66 23 -2 23 C-2.33 16.4 -2.66 9.8 -3 3 C-2.01 2.67 -1.02 2.34 0 2 C0 1.34 0 0.68 0 0 Z " fill="#A91F6B" transform="translate(319,265)"/>
<path d="M0 0 C0.86882812 0.27714844 1.73765625 0.55429687 2.6328125 0.83984375 C3.78523438 1.20207031 4.93765625 1.56429688 6.125 1.9375 C7.26195312 2.29714844 8.39890625 2.65679687 9.5703125 3.02734375 C12.71432699 3.91898339 15.76894393 4.53351014 19 5 C19 5.33 19 5.66 19 6 C4.74006908 6.291019 4.74006908 6.291019 1.0625 3.5625 C0 2 0 2 0 0 Z " fill="#FEE1E0" transform="translate(269,265)"/>
<path d="M0 0 C0.66 0.66 1.32 1.32 2 2 C1.875 4.5 1.875 4.5 1 7 C-1.0625 8.3125 -1.0625 8.3125 -3 9 C-3.33 6.36 -3.66 3.72 -4 1 C-2.125 0.375 -2.125 0.375 0 0 Z " fill="#F3BE0C" transform="translate(340,127)"/>
<path d="M0 0 C0.33 0.99 0.66 1.98 1 3 C1.99 3 2.98 3 4 3 C3.42415568 5.38564077 2.77772405 7.66682784 2 10 C1.01 9.67 0.02 9.34 -1 9 C-1.09765625 2.84765625 -1.09765625 2.84765625 -1 1 C-0.67 0.67 -0.34 0.34 0 0 Z " fill="#3E3169" transform="translate(292,261)"/>
<path d="M0 0 C0.99 0 1.98 0 3 0 C3 3 3 3 1.0625 5.0625 C0.381875 5.701875 -0.29875 6.34125 -1 7 C-1.33 7.66 -1.66 8.32 -2 9 C-2.99 9 -3.98 9 -5 9 C-4.42636089 5.12793601 -2.65894107 2.81534937 0 0 Z " fill="#CD0B79" transform="translate(316,264)"/>
<path d="M0 0 C0.66 0.33 1.32 0.66 2 1 C1.34 4.3 0.68 7.6 0 11 C-0.66 10.67 -1.32 10.34 -2 10 C-2.66 10.99 -3.32 11.98 -4 13 C-4.63934602 7.88523181 -2.40533547 4.32745622 0 0 Z " fill="#4C326B" transform="translate(297,247)"/>
<path d="M0 0 C0.66 0 1.32 0 2 0 C1.84518205 2.70931419 1.51827919 4.46584039 -0.40234375 6.4453125 C-1.89771708 7.67679642 -3.4462924 8.8429837 -5 10 C-3.66749209 6.4124787 -2.169283 3.1635377 0 0 Z M-6 10 C-6 13 -6 13 -6 13 Z " fill="#772E70" transform="translate(325,235)"/>
<path d="M0 0 C1.12764117 3.33720834 0.87990246 5.31283494 -0.25 8.625 C-0.50265625 9.40101563 -0.7553125 10.17703125 -1.015625 10.9765625 C-2 13 -2 13 -5 15 C-4.5188509 9.22621075 -2.81532819 5.04140164 0 0 Z " fill="#F97513" transform="translate(266,210)"/>
<path d="M0 0 C0.99 0.33 1.98 0.66 3 1 C2.67 1.66 2.34 2.32 2 3 C1.34 3 0.68 3 0 3 C-0.20625 3.5775 -0.4125 4.155 -0.625 4.75 C-2.49750888 7.81410544 -4.96958519 9.15539968 -8 11 C-8 10.01 -8 9.02 -8 8 C-6.68 7.67 -5.36 7.34 -4 7 C-4 5.68 -4 4.36 -4 3 C-3.01 3 -2.02 3 -1 3 C-0.67 2.01 -0.34 1.02 0 0 Z " fill="#FEF8CF" transform="translate(320,104)"/>
<path d="M0 0 C2.99220268 1.36370299 5.29026529 2.94908083 7.75 5.125 C8.67039062 5.93324219 8.67039062 5.93324219 9.609375 6.7578125 C10.06828125 7.16773438 10.5271875 7.57765625 11 8 C9.171875 8.64453125 9.171875 8.64453125 7 9 C4.25 6.6875 4.25 6.6875 2 4 C2 3.34 2 2.68 2 2 C1.34 2 0.68 2 0 2 C0 1.34 0 0.68 0 0 Z " fill="#FAD6D5" transform="translate(254,254)"/>
<path d="M0 0 C0.99 0 1.98 0 3 0 C4.25 6.625 4.25 6.625 2 10 C1.34 10 0.68 10 0 10 C0 6.7 0 3.4 0 0 Z " fill="#E75B0A" transform="translate(260,230)"/>
<path d="M0 0 C0.33 0 0.66 0 1 0 C1.36923077 5.41538462 1.36923077 5.41538462 -0.5 8.375 C-0.995 8.91125 -1.49 9.4475 -2 10 C-2 9.34 -2 8.68 -2 8 C-2.99 8.33 -3.98 8.66 -5 9 C-4.67 7.02 -4.34 5.04 -4 3 C-2.68 3 -1.36 3 0 3 C0 2.01 0 1.02 0 0 Z " fill="#E8550E" transform="translate(265,153)"/>
<path d="M0 0 C0.66 0 1.32 0 2 0 C2 2.31 2 4.62 2 7 C1.34 6.67 0.68 6.34 0 6 C-0.99 9.3 -1.98 12.6 -3 16 C-3.94387074 12.22451702 -4.02924388 11.0164254 -3.1875 7.4375 C-3.01605469 6.67308594 -2.84460938 5.90867187 -2.66796875 5.12109375 C-2 3 -2 3 0 0 Z " fill="#FEF4D2" transform="translate(344,64)"/>
<path d="M0 0 C0.66 0.33 1.32 0.66 2 1 C2 4.63 2 8.26 2 12 C1.01 12.33 0.02 12.66 -1 13 C-0.67 11.02 -0.34 9.04 0 7 C-0.66 6.67 -1.32 6.34 -2 6 C-1.34 4.02 -0.68 2.04 0 0 Z " fill="#B71673" transform="translate(362,185)"/>
<path d="M0 0 C3.37503669 1.1858237 5.64722731 2.27573689 8 5 C3.30976546 4.43393721 -1.34500026 3.81462495 -6 3 C-4.125 1.9375 -4.125 1.9375 -2 1 C-1.34 1.33 -0.68 1.66 0 2 C0 1.34 0 0.68 0 0 Z " fill="#5B4568" transform="translate(344,327)"/>
<path d="M0 0 C1.17539996 0.92652701 2.34010577 1.86663387 3.5 2.8125 C4.1496875 3.33457031 4.799375 3.85664063 5.46875 4.39453125 C7 6 7 6 7 9 C3.34683329 7.75023244 2.21934164 7.32901247 0 4 C0 2.68 0 1.36 0 0 Z " fill="#6E426F" transform="translate(331,314)"/>
<path d="M0 0 C1.32 0.33 2.64 0.66 4 1 C4 1.66 4 2.32 4 3 C4.66 3 5.32 3 6 3 C6 4.98 6 6.96 6 9 C5.01 9.495 5.01 9.495 4 10 C2.875 6.25 2.875 6.25 4 4 C2.68 3.34 1.36 2.68 0 2 C0 1.34 0 0.68 0 0 Z " fill="#E90312" transform="translate(250,240)"/>
<path d="M0 0 C0.66 0 1.32 0 2 0 C2.3125 2.3125 2.3125 2.3125 2 5 C-0.5 6.8125 -0.5 6.8125 -3 8 C-3.33 7.01 -3.66 6.02 -4 5 C-2.1875 2.3125 -2.1875 2.3125 0 0 Z " fill="#9E3C68" transform="translate(313,218)"/>
<path d="M0 0 C0.66 0 1.32 0 2 0 C2 0.66 2 1.32 2 2 C2.66 2.33 3.32 2.66 4 3 C2.35 4.32 0.7 5.64 -1 7 C-1.66 6.67 -2.32 6.34 -3 6 C-2.42655063 3.13275314 -2.1385485 2.1385485 0 0 Z " fill="#F6F1F9" transform="translate(313,212)"/>
<path d="M0 0 C0 0.99 0 1.98 0 3 C-1.65 3.66 -3.3 4.32 -5 5 C-5 5.66 -5 6.32 -5 7 C-5.99 7.66 -6.98 8.32 -8 9 C-9.32 8.67 -10.64 8.34 -12 8 C-8.04 5.36 -4.08 2.72 0 0 Z " fill="#E49B39" transform="translate(292,130)"/>
<path d="M0 0 C0.66 0 1.32 0 2 0 C2 0.66 2 1.32 2 2 C2.61875 2.28875 3.2375 2.5775 3.875 2.875 C6 4 6 4 8 6 C7.34 6.66 6.68 7.32 6 8 C6 7.34 6 6.68 6 6 C5.195625 6.020625 4.39125 6.04125 3.5625 6.0625 C1 6 1 6 0 5 C-0.04063832 3.33382885 -0.042721 1.66611905 0 0 Z " fill="#6C3068" transform="translate(309,311)"/>
<path d="M0 0 C1.48293482 3.85563054 0.5653226 6.27304143 -1 10 C-2.28072371 12.0340906 -3.60287726 14.04402816 -5 16 C-5.66 15.67 -6.32 15.34 -7 15 C-6.36771484 13.75283203 -6.36771484 13.75283203 -5.72265625 12.48046875 C-5.17480469 11.39378906 -4.62695312 10.30710938 -4.0625 9.1875 C-3.51722656 8.10855469 -2.97195313 7.02960938 -2.41015625 5.91796875 C-0.9414793 3.03788473 -0.9414793 3.03788473 0 0 Z " fill="#F8D5EE" transform="translate(362,202)"/>
<path d="M0 0 C1 3 1 3 -0.21484375 5.48046875 C-0.78332031 6.37378906 -1.35179687 7.26710937 -1.9375 8.1875 C-2.50339844 9.08855469 -3.06929688 9.98960937 -3.65234375 10.91796875 C-4.09707031 11.60503906 -4.54179687 12.29210937 -5 13 C-5.68359375 11.296875 -5.68359375 11.296875 -6 9 C-4.78515625 6.640625 -4.78515625 6.640625 -3.0625 4.25 C-2.49660156 3.45078125 -1.93070312 2.6515625 -1.34765625 1.828125 C-0.90292969 1.22484375 -0.45820313 0.6215625 0 0 Z " fill="#FC9616" transform="translate(273,200)"/>
<path d="M0 0 C0 1.98 0 3.96 0 6 C-1.65 6.33 -3.3 6.66 -5 7 C-5.1875 4.625 -5.1875 4.625 -5 2 C-2 0 -2 0 0 0 Z " fill="#632B6C" transform="translate(325,249)"/>
<path d="M0 0 C0.99 0.66 1.98 1.32 3 2 C2.649375 2.78375 2.29875 3.5675 1.9375 4.375 C1.628125 5.24125 1.31875 6.1075 1 7 C1.33 7.66 1.66 8.32 2 9 C0.68 9.33 -0.64 9.66 -2 10 C-2 8.35 -2 6.7 -2 5 C-1.67 5 -1.34 5 -1 5 C-0.67 3.35 -0.34 1.7 0 0 Z " fill="#563772" transform="translate(302,246)"/>
<path d="M0 0 C-1.31224548 3.93673644 -2.91910327 6.22719294 -6 9 C-6 6.69 -6 4.38 -6 2 C-2.25 0 -2.25 0 0 0 Z " fill="#E84916" transform="translate(278,190)"/>
<path d="M0 0 C0.94875 0.04125 1.8975 0.0825 2.875 0.125 C3.205 1.115 3.535 2.105 3.875 3.125 C2.555 3.455 1.235 3.785 -0.125 4.125 C-0.125 3.465 -0.125 2.805 -0.125 2.125 C-3.24697478 3.4339572 -3.24697478 3.4339572 -5.125 6.125 C-5.785 6.125 -6.445 6.125 -7.125 6.125 C-4.34782609 0.17391304 -4.34782609 0.17391304 0 0 Z " fill="#DE5129" transform="translate(257.125,163.875)"/>
<path d="M0 0 C4.571279 0.54855348 8.67435795 1.41744803 13 3 C12.67 3.66 12.34 4.32 12 5 C3.42857143 3.14285714 3.42857143 3.14285714 0 0 Z " fill="#63446A" transform="translate(322,323)"/>
<path d="M0 0 C0.99 0.33 1.98 0.66 3 1 C2.71125 1.70125 2.4225 2.4025 2.125 3.125 C0.97866412 6.05452503 -0.02625654 9.00921653 -1 12 C-2.24079227 8.27762318 -1.6953965 5.82468076 -1 2 C-0.67 1.34 -0.34 0.68 0 0 Z " fill="#713775" transform="translate(304,233)"/>
<path d="M0 0 C0.99 0.33 1.98 0.66 3 1 C3 5.29 3 9.58 3 14 C2.34 14 1.68 14 1 14 C0.67 9.38 0.34 4.76 0 0 Z " fill="#F8B506" transform="translate(281,206)"/>
<path d="M0 0 C0.66 1.32 1.32 2.64 2 4 C0.35 4 -1.3 4 -3 4 C-3.66 5.32 -4.32 6.64 -5 8 C-5.99 7.67 -6.98 7.34 -8 7 C-5.36 4.69 -2.72 2.38 0 0 Z " fill="#F2BA1D" transform="translate(336,92)"/>
<path d="M0 0 C2.66735273 2.48952921 4.55746343 4.63408134 6 8 C4.68 8.33 3.36 8.66 2 9 C1.34 6.03 0.68 3.06 0 0 Z " fill="#8A4779" transform="translate(323,303)"/>
<path d="M0 0 C2.97 0.495 2.97 0.495 6 1 C4.35 3.64 2.7 6.28 1 9 C0.17189174 5.68756695 -0.09278428 3.34023421 0 0 Z " fill="#6E2E69" transform="translate(328,240)"/>
<path d="M0 0 C3.3 0 6.6 0 10 0 C8.515 1.98 8.515 1.98 7 4 C6.34 4 5.68 4 5 4 C5 3.34 5 2.68 5 2 C3.68 2.33 2.36 2.66 1 3 C0.67 2.01 0.34 1.02 0 0 Z " fill="#EA5C0D" transform="translate(272,176)"/>
<path d="M0 0 C0.99 0 1.98 0 3 0 C3 0.66 3 1.32 3 2 C-2.47619048 7 -2.47619048 7 -5 7 C-4.67 5.68 -4.34 4.36 -4 3 C-2.68 2.67 -1.36 2.34 0 2 C0 1.34 0 0.68 0 0 Z " fill="#E1972B" transform="translate(317,154)"/>
<path d="M0 0 C0 3.90838866 -1.50567876 5.11594107 -4 8 C-6.97 7.505 -6.97 7.505 -10 7 C-9.46375 6.773125 -8.9275 6.54625 -8.375 6.3125 C-5.21499137 4.56617944 -2.7323017 2.3597151 0 0 Z " fill="#F7A204" transform="translate(299,128)"/>
<path d="M0 0 C0.66 0 1.32 0 2 0 C1.5206753 4.31392226 0.2542015 6.16569547 -3 9 C-3.66 8.67 -4.32 8.34 -5 8 C-4.21718695 6.66144944 -3.42348123 5.32926356 -2.625 4 C-2.18414062 3.2575 -1.74328125 2.515 -1.2890625 1.75 C-0.86367188 1.1725 -0.43828125 0.595 0 0 Z " fill="#EDC039" transform="translate(337,86)"/>
<path d="M0 0 C0.66 0 1.32 0 2 0 C0.79157144 4.43090471 -0.51668565 6.98112756 -4 10 C-3.125 4.25 -3.125 4.25 -2 2 C-1.34 2 -0.68 2 0 2 C0 1.34 0 0.68 0 0 Z " fill="#D56331" transform="translate(301,232)"/>
<path d="M0 0 C0 0.99 0 1.98 0 3 C-0.99 3 -1.98 3 -3 3 C-3 3.66 -3 4.32 -3 5 C-4.65 5 -6.3 5 -8 5 C-8 4.34 -8 3.68 -8 3 C-5.04518508 0.25624329 -4.22528092 0 0 0 Z " fill="#F27F09" transform="translate(307,162)"/>
<path d="M0 0 C1.65 0.33 3.3 0.66 5 1 C5 1.66 5 2.32 5 3 C3.02 3.99 1.04 4.98 -1 6 C-1.66 5.34 -2.32 4.68 -3 4 C-2.34 4 -1.68 4 -1 4 C-0.67 2.68 -0.34 1.36 0 0 Z " fill="#F18604" transform="translate(280,139)"/>
<path d="M0 0 C0.36923077 5.41538462 0.36923077 5.41538462 -1.5 8.375 C-1.995 8.91125 -2.49 9.4475 -3 10 C-2.67 8.02 -2.34 6.04 -2 4 C-2.66 3.67 -3.32 3.34 -4 3 C-1.125 0 -1.125 0 0 0 Z " fill="#EB2F1C" transform="translate(267,201)"/>
<path d="M0 0 C0.33 0 0.66 0 1 0 C1 1.65 1 3.3 1 5 C-1.31 5.66 -3.62 6.32 -6 7 C-5.02433888 5.83040013 -4.044375 4.66438823 -3.0625 3.5 C-2.51722656 2.8503125 -1.97195313 2.200625 -1.41015625 1.53125 C-0.71212891 0.77328125 -0.71212891 0.77328125 0 0 Z " fill="#AB3F81" transform="translate(337,192)"/>
<path d="M0 0 C0 3 0 3 -1.53125 4.60546875 C-2.1809375 5.12753906 -2.830625 5.64960938 -3.5 6.1875 C-4.1496875 6.71730469 -4.799375 7.24710938 -5.46875 7.79296875 C-5.9740625 8.19128906 -6.479375 8.58960938 -7 9 C-6.19095897 4.20719998 -3.74015409 2.86479887 0 0 Z " fill="#DC7102" transform="translate(290,180)"/>
<path d="M0 0 C0.66 0.33 1.32 0.66 2 1 C1.835 1.763125 1.67 2.52625 1.5 3.3125 C0.90854604 6.03596236 0.90854604 6.03596236 1 9 C-0.32 8.34 -1.64 7.68 -3 7 C-1.125 1.125 -1.125 1.125 0 0 Z " fill="#DF311A" transform="translate(247,176)"/>
<path d="M0 0 C0.66 0 1.32 0 2 0 C3.19287411 3.87684087 4 6.91621923 4 11 C3.34 11 2.68 11 2 11 C1.67 8.36 1.34 5.72 1 3 C0.34 3 -0.32 3 -1 3 C-0.67 2.01 -0.34 1.02 0 0 Z " fill="#B62F74" transform="translate(359,174)"/>
<path d="M0 0 C0.66 0 1.32 0 2 0 C0.78184562 4.68520915 -0.69559987 8.70543612 -3 13 C-3.93045933 10.44855176 -4.08564091 9.25993522 -3.22265625 6.640625 C-2.83980469 5.85171875 -2.45695313 5.0628125 -2.0625 4.25 C-1.68222656 3.45078125 -1.30195313 2.6515625 -0.91015625 1.828125 C-0.60980469 1.22484375 -0.30945313 0.6215625 0 0 Z " fill="#FEDFD5" transform="translate(243,176)"/>
<path d="M0 0 C0 3 0 3 -1.5 4.6875 C-1.995 5.120625 -2.49 5.55375 -3 6 C-3.99 5.34 -4.98 4.68 -6 4 C-5.67 3.01 -5.34 2.02 -5 1 C-3.35 0.67 -1.7 0.34 0 0 Z " fill="#EE6F05" transform="translate(275,147)"/>
<path d="M0 0 C0.33 0.66 0.66 1.32 1 2 C-0.76227632 5.61730402 -2.64326421 7.80075931 -6 10 C-6.66 9.67 -7.32 9.34 -8 9 C-5.36 6.03 -2.72 3.06 0 0 Z " fill="#FCEEC0" transform="translate(340,134)"/>
<path d="M0 0 C0.598125 0.61875 1.19625 1.2375 1.8125 1.875 C4.00811144 4.13676954 4.00811144 4.13676954 7 6 C6.67 6.66 6.34 7.32 6 8 C2.24623848 6.74874616 1.75926711 5.4347596 0 2 C0 1.34 0 0.68 0 0 Z " fill="#93347D" transform="translate(313,307)"/>
<path d="M0 0 C2.375 1.1875 2.375 1.1875 3.375 3.1875 C0 3.375 0 3.375 -3.625 3.1875 C-4.285 2.1975 -4.945 1.2075 -5.625 0.1875 C-2.625 -0.8125 -2.625 -0.8125 0 0 Z " fill="#D7131B" transform="translate(268.625,259.8125)"/>
<path d="M0 0 C1.32 0.66 2.64 1.32 4 2 C4 3.32 4 4.64 4 6 C3.34 6 2.68 6 2 6 C2 5.34 2 4.68 2 4 C0.68 4.33 -0.64 4.66 -2 5 C-1.34 3.35 -0.68 1.7 0 0 Z " fill="#F5B20E" transform="translate(328,100)"/>
<path d="M0 0 C0.66 0.33 1.32 0.66 2 1 C-0.475 5.455 -0.475 5.455 -3 10 C-3.66 8.68 -4.32 7.36 -5 6 C-4.360625 5.566875 -3.72125 5.13375 -3.0625 4.6875 C-0.73253997 3.08760823 -0.73253997 3.08760823 0 0 Z " fill="#602869" transform="translate(306,272)"/>
<path d="M0 0 C0.99 0.99 1.98 1.98 3 3 C2.39816251 5.02045442 1.72693904 7.02111039 1 9 C0.01 9.495 0.01 9.495 -1 10 C-0.835 9.46375 -0.67 8.9275 -0.5 8.375 C0.09660212 5.54113991 0.0656368 2.8880194 0 0 Z " fill="#412E65" transform="translate(304,267)"/>
<path d="M0 0 C2.31 0 4.62 0 7 0 C7.33 0.99 7.66 1.98 8 3 C2.25 3.125 2.25 3.125 0 2 C0 1.34 0 0.68 0 0 Z " fill="#E3051B" transform="translate(279,265)"/>
<path d="M0 0 C0.99 0 1.98 0 3 0 C3.1875 2.8125 3.1875 2.8125 3 6 C2.01 6.99 1.02 7.98 0 9 C0 6.03 0 3.06 0 0 Z " fill="#A82179" transform="translate(352,208)"/>
<path d="M0 0 C0.66 0.33 1.32 0.66 2 1 C1.01 1.33 0.02 1.66 -1 2 C-1.33 2.99 -1.66 3.98 -2 5 C-5.0625 6.1875 -5.0625 6.1875 -8 7 C-5.42215154 4.35247996 -3.08351902 2.05567935 0 0 Z " fill="#E7B03F" transform="translate(309,118)"/>
<path d="M0 0 C1.32 0.33 2.64 0.66 4 1 C-1.75 6 -1.75 6 -4 6 C-4 5.01 -4 4.02 -4 3 C-2.68 3 -1.36 3 0 3 C0 2.01 0 1.02 0 0 Z " fill="#FEF4D0" transform="translate(300,121)"/>
<path d="M0 0 C2 3 2 3 2 5 C1.34 5 0.68 5 0 5 C0 5.66 0 6.32 0 7 C-0.66 7 -1.32 7 -2 7 C-2.33 5.68 -2.66 4.36 -3 3 C-2.01 2.67 -1.02 2.34 0 2 C0 1.34 0 0.68 0 0 Z " fill="#F7C20E" transform="translate(350,81)"/>
<path d="M0 0 C1.26724763 3.80174289 0.4750819 5.3511132 -1 9 C-1.66 9.66 -2.32 10.32 -3 11 C-2.53199289 6.94393835 -2.12046792 3.53411321 0 0 Z " fill="#AC3A86" transform="translate(328,224)"/>
<path d="M0 0 C0.66 0 1.32 0 2 0 C1.37240135 2.92879371 0.41377341 5.36095629 -1 8 C-1.33 8 -1.66 8 -2 8 C-1.125 1.125 -1.125 1.125 0 0 Z " fill="#EFAA02" transform="translate(272,205)"/>
<path d="M0 0 C0.66 0.66 1.32 1.32 2 2 C1.34 3.32 0.68 4.64 0 6 C-0.33 6 -0.66 6 -1 6 C-1.042721 4.33388095 -1.04063832 2.66617115 -1 1 C-0.67 0.67 -0.34 0.34 0 0 Z M-3 6 C-2.34 6.33 -1.68 6.66 -1 7 C-1.99 8.485 -1.99 8.485 -3 10 C-3 8.68 -3 7.36 -3 6 Z " fill="#DC1C1A" transform="translate(242,187)"/>
<path d="M0 0 C1.32 0 2.64 0 4 0 C3.25 1.9375 3.25 1.9375 2 4 C-0.125 4.75 -0.125 4.75 -2 5 C-1.34 3.35 -0.68 1.7 0 0 Z " fill="#FAC80A" transform="translate(344,120)"/>
<path d="M0 0 C-0.33 0.99 -0.66 1.98 -1 3 C-1.99 3 -2.98 3 -4 3 C-4 3.66 -4 4.32 -4 5 C-4.99 5 -5.98 5 -7 5 C-5.64703851 0.94111554 -4.27479763 0 0 0 Z " fill="#F7A80A" transform="translate(307,123)"/>
<path d="M0 0 C2.9719385 1.12451727 5.33440687 2.22293791 8 4 C7.67 4.99 7.34 5.98 7 7 C5.83040013 6.02433888 4.66438823 5.044375 3.5 4.0625 C2.8503125 3.51722656 2.200625 2.97195312 1.53125 2.41015625 C1.0259375 1.94480469 0.520625 1.47945312 0 1 C0 0.67 0 0.34 0 0 Z " fill="#C42430" transform="translate(252,251)"/>
<path d="M0 0 C0.66 0 1.32 0 2 0 C0.25 5.75 0.25 5.75 -2 8 C-2 6.02 -2 4.04 -2 2 C-1.34 2 -0.68 2 0 2 C0 1.34 0 0.68 0 0 Z " fill="#C13C2D" transform="translate(293,248)"/>
<path d="M0 0 C0.66 0.99 1.32 1.98 2 3 C-0.97 5.475 -0.97 5.475 -4 8 C-3.40072174 4.64404172 -2.15377564 2.62198774 0 0 Z " fill="#7A4C76" transform="translate(334,240)"/>
<path d="M0 0 C0.99 0.33 1.98 0.66 3 1 C-0.465 3.97 -0.465 3.97 -4 7 C-4 6.01 -4 5.02 -4 4 C-3.34 4 -2.68 4 -2 4 C-1.34 2.68 -0.68 1.36 0 0 Z " fill="#EBB73E" transform="translate(336,136)"/>
<path d="M0 0 C1.2077558 3.62326739 0.54311128 4.64146369 -1 8 C-1.66 8 -2.32 8 -3 8 C-2.25 2.25 -2.25 2.25 0 0 Z " fill="#FEC40B" transform="translate(316,136)"/>
<path d="M0 0 C0.66 0.33 1.32 0.66 2 1 C-0.12780579 3.34058637 -2.11562221 4.70700306 -5 6 C-5 5.01 -5 4.02 -5 3 C-4.34 3 -3.68 3 -3 3 C-3 2.34 -3 1.68 -3 1 C-2.01 0.67 -1.02 0.34 0 0 Z " fill="#FCEEBF" transform="translate(310,115)"/>
</svg>
